<?xml version="1.0" standalone="no"?>
<svg xmlns="http://www.w3.org/2000/svg" xmlns:xlink="http://www.w3.org/1999/xlink" width="629pt" height="352pt" viewBox="0.00 0.00 628.99 352.40">
<g id="graph0" class="graph" transform="translate(14.399999618530273,338) scale(1)" data-name="structs">

<polygon fill="#1f1a30" stroke="none" points="-14.4,14.4 -14.4,-338 614.59,-338 614.59,14.4 -14.4,14.4"/>
<!-- s3 -->
<g id="node4" class="node" pointer-events="visible" data-name="s3">

<polygon fill="none" stroke="orange" stroke-width="2" points="347,-256.7 347,-306.3 419.38,-306.3 419.38,-256.7 347,-256.7"/>
<text text-anchor="middle" x="383.19" y="-289.7" font-family="sans-serif" font-size="14.00" fill="#ffc4b9">priority: 2</text>
<polyline fill="none" stroke="orange" stroke-width="2" points="347,-281.5 419.38,-281.5"/>
<text text-anchor="middle" x="382.97" y="-264.9" font-family="sans-serif" font-size="14.00" fill="#ffc4b9">ptr: *</text>
<text text-anchor="middle" x="340.39" y="-311" font-family="sans-serif" font-size="14.00" fill="#ffc4b9">yz</text>
</g><g id="node1" class="node" pointer-events="visible" data-name="a" data-comment="s3">

<polygon fill="none" stroke="orange" stroke-width="2" points="54,-256.7 54,-306.3 126.38,-306.3 126.38,-256.7 54,-256.7"/>
<text text-anchor="middle" x="90.19" y="-289.7" font-family="sans-serif" font-size="14.00" fill="#ffc4b9">priority: 2</text>
<polyline fill="none" stroke="orange" stroke-width="2" points="54,-281.5 126.38,-281.5"/>
<text text-anchor="middle" x="89.97" y="-264.9" font-family="sans-serif" font-size="14.00" fill="#ffc4b9">ptr: *</text>
<text text-anchor="middle" x="50.89" y="-311" font-family="sans-serif" font-size="14.00" fill="#ffc4b9">a</text>
</g>
<!-- buffer -->
<g id="node5" class="node" pointer-events="visible" data-name="buffer">

<polygon fill="none" stroke="orange" stroke-width="2" points="254.58,-24 254.58,-60 437.8,-60 437.8,-24 254.58,-24"/>
<text text-anchor="middle" x="266.08" y="-37.8" font-family="sans-serif" font-size="14.00" fill="#ffc4b9">_</text>
<polyline fill="none" stroke="orange" stroke-width="2" points="277.58,-24 277.58,-60"/>
<text text-anchor="middle" x="289.08" y="-37.8" font-family="sans-serif" font-size="14.00" fill="#ffc4b9">_</text>
<polyline fill="none" stroke="orange" stroke-width="2" points="300.58,-24 300.58,-60"/>
<text text-anchor="middle" x="312.08" y="-37.8" font-family="sans-serif" font-size="14.00" fill="#ffc4b9">_</text>
<polyline fill="none" stroke="orange" stroke-width="2" points="323.58,-24 323.58,-60"/>
<text text-anchor="middle" x="335.08" y="-37.8" font-family="sans-serif" font-size="14.00" fill="#ffc4b9">_</text>
<polyline fill="none" stroke="orange" stroke-width="2" points="346.58,-24 346.58,-60"/>
<text text-anchor="middle" x="358.08" y="-37.8" font-family="sans-serif" font-size="14.00" fill="#ffc4b9">_</text>
<polyline fill="none" stroke="orange" stroke-width="2" points="369.58,-24 369.58,-60"/>
<text text-anchor="middle" x="381.08" y="-37.8" font-family="sans-serif" font-size="14.00" fill="#ffc4b9">_</text>
<polyline fill="none" stroke="orange" stroke-width="2" points="392.58,-24 392.58,-60"/>
<text text-anchor="middle" x="404.08" y="-37.8" font-family="sans-serif" font-size="14.00" fill="#ffc4b9">y</text>
<polyline fill="none" stroke="orange" stroke-width="2" points="415.58,-24 415.58,-60"/>
<text text-anchor="middle" x="426.69" y="-37.8" font-family="sans-serif" font-size="14.00" fill="#ffc4b9">z</text>
</g><g id="node2" class="node" pointer-events="visible" data-name="buffer2" data-comment="buffer">

<polygon fill="none" stroke="orange" stroke-width="2" points="11.58,-24 11.58,-60 102.8,-60 102.8,-24 11.58,-24"/>
<text text-anchor="middle" x="23.08" y="-37.8" font-family="sans-serif" font-size="14.00" fill="#ffc4b9">_</text>
<polyline fill="none" stroke="orange" stroke-width="2" points="34.58,-24 34.58,-60"/>
<text text-anchor="middle" x="46.08" y="-37.8" font-family="sans-serif" font-size="14.00" fill="#ffc4b9">_</text>
<polyline fill="none" stroke="orange" stroke-width="2" points="57.58,-24 57.58,-60"/>
<text text-anchor="middle" x="69.08" y="-37.8" font-family="sans-serif" font-size="14.00" fill="#ffc4b9">_</text>
<polyline fill="none" stroke="orange" stroke-width="2" points="80.58,-24 80.58,-60"/>
<text text-anchor="middle" x="91.69" y="-37.8" font-family="sans-serif" font-size="14.00" fill="#ffc4b9">a</text>
</g>
<!-- s3&#45;&gt;buffer -->
<g id="edge3" class="edge" data-name="s3-&gt;buffer">

<path fill="none" stroke="#ffc4b9" stroke-width="2" stroke-dasharray="1,5" d="M375.1,-256.62C362.1,-213.5 342.12,-122.15 385.35,-68.61"/>
<polygon fill="#ffc4b9" stroke="#ffc4b9" stroke-width="2" points="388.11,-70.78 392.19,-61 382.9,-66.1 388.11,-70.78"/>
</g><g id="edge1" class="edge" data-name="a-&gt;buffer2" data-comment="s3-&gt;buffer">

<path fill="none" stroke="#ffc4b9" stroke-width="2" d="M79.21,-256.62C61.14,-213.5 31.11,-122.16 73.41,-68.62" stroke-dasharray="1,5"/>
<polygon fill="#ffc4b9" stroke="#ffc4b9" stroke-width="2" points="76.16,-70.8 80.19,-61 70.93,-66.14 76.16,-70.8"/>
</g>
<!-- cell -->
<g id="node6" class="node" pointer-events="visible" data-name="cell">

<polygon fill="none" stroke="orange" stroke-width="2" points="465.72,-120.5 465.72,-219.7 546.66,-219.7 546.66,-120.5 465.72,-120.5"/>
<text text-anchor="middle" x="506.19" y="-203.1" font-family="sans-serif" font-size="14.00" fill="#ffc4b9">priorities: *</text>
<polyline fill="none" stroke="orange" stroke-width="2" points="465.72,-194.9 546.66,-194.9"/>
<text text-anchor="middle" x="505.97" y="-178.3" font-family="sans-serif" font-size="14.00" fill="#ffc4b9">len: 2</text>
<polyline fill="none" stroke="orange" stroke-width="2" points="465.72,-170.1 546.66,-170.1"/>
<text text-anchor="middle" x="506.13" y="-153.5" font-family="sans-serif" font-size="14.00" fill="#ffc4b9">cap: 8</text>
<polyline fill="none" stroke="orange" stroke-width="2" points="465.72,-145.3 546.66,-145.3"/>
<text text-anchor="middle" x="505.69" y="-128.7" font-family="sans-serif" font-size="14.00" fill="#ffc4b9">ptr: *</text>
</g><g id="node3" class="node" pointer-events="visible" data-name="cell2" data-comment="cell">

<polygon fill="none" stroke="orange" stroke-width="2" points="101.72,-120.5 101.72,-219.7 182.66,-219.7 182.66,-120.5 101.72,-120.5"/>
<text text-anchor="middle" x="142.19" y="-203.1" font-family="sans-serif" font-size="14.00" fill="#ffc4b9">priorities: *</text>
<polyline fill="none" stroke="orange" stroke-width="2" points="101.72,-194.9 182.66,-194.9"/>
<text text-anchor="middle" x="141.97" y="-178.3" font-family="sans-serif" font-size="14.00" fill="#ffc4b9">len: 2</text>
<polyline fill="none" stroke="orange" stroke-width="2" points="101.72,-170.1 182.66,-170.1"/>
<text text-anchor="middle" x="142.13" y="-153.5" font-family="sans-serif" font-size="14.00" fill="#ffc4b9">cap: 4</text>
<polyline fill="none" stroke="orange" stroke-width="2" points="101.72,-145.3 182.66,-145.3"/>
<text text-anchor="middle" x="141.69" y="-128.7" font-family="sans-serif" font-size="14.00" fill="#ffc4b9">ptr: *</text>
</g>
<!-- s3&#45;&gt;cell -->
<g id="edge4" class="edge" data-name="s3-&gt;cell">

<path fill="none" stroke="#ffc4b9" stroke-width="2" d="M420.19,-269.5C427.09,-269.5 423.05,-260.8 428.19,-256.2 453.62,-233.4 495.97,-253.14 504.62,-230.22"/>
<polygon fill="#ffc4b9" stroke="#ffc4b9" stroke-width="2" points="508.1,-230.62 506.19,-220.2 501.18,-229.54 508.1,-230.62"/>
</g><g id="edge2" class="edge" data-name="a-&gt;cell2" data-comment="s3-&gt;cell">

<path fill="none" stroke="#ffc4b9" stroke-width="2" d="M127.19,-269.5C146.78,-269.5 143.83,-250.18 142.57,-230.26"/>
<polygon fill="#ffc4b9" stroke="#ffc4b9" stroke-width="2" points="146.06,-230.06 142.19,-220.2 139.07,-230.32 146.06,-230.06"/>
</g>
<!-- cell&#45;&gt;buffer -->
<g id="edge7" class="edge" data-name="cell-&gt;buffer">

<path fill="none" stroke="#ffc4b9" stroke-width="2" d="M546.19,-133.1C552.03,-133.1 549.05,-124.38 545.19,-120 504.75,-74.22 249.79,-102.62 249.19,-70.07"/>
<polygon fill="#ffc4b9" stroke="#ffc4b9" stroke-width="2" points="252.43,-71.45 254.19,-61 246.3,-68.07 252.43,-71.45"/>
</g><g id="edge9" class="edge" data-name="cell2-&gt;buffer2" data-comment="cell-&gt;buffer">

<path fill="none" stroke="#ffc4b9" stroke-width="2" d="M182.19,-133.1C188.03,-133.1 184.75,-124.63 181.19,-120 134.76,-59.74 -28.31,-111.9 4.54,-68.47"/>
<polygon fill="#ffc4b9" stroke="#ffc4b9" stroke-width="2" points="7.16,-70.8 11.19,-61 1.93,-66.14 7.16,-70.8"/>
</g>
<!-- priorities -->
<g id="node8" class="node" pointer-events="visible" data-name="priorities">

<polygon fill="none" stroke="orange" points="503.19,-55 503.19,-77 550.19,-77 550.19,-55 503.19,-55"/>
<text text-anchor="start" x="505.69" y="-61.4" font-family="sans-serif" font-size="14.00" fill="#ffc4b9">priority</text>
<polygon fill="none" stroke="orange" points="552.19,-55 552.19,-77 589.19,-77 589.19,-55 552.19,-55"/>
<text text-anchor="start" x="555.14" y="-61.4" font-family="sans-serif" font-size="14.00" fill="#ffc4b9">count</text>
<polygon fill="none" stroke="orange" points="503.19,-31 503.19,-53 550.19,-53 550.19,-31 503.19,-31"/>
<text text-anchor="start" x="523.19" y="-37.4" font-family="sans-serif" font-size="14.00" fill="#ffc4b9">2</text>
<polygon fill="none" stroke="orange" points="552.19,-31 552.19,-53 589.19,-53 589.19,-31 552.19,-31"/>
<text text-anchor="start" x="567.19" y="-37.4" font-family="sans-serif" font-size="14.00" fill="#ffc4b9">1</text>
<polygon fill="none" stroke="orange" points="503.19,-7 503.19,-29 550.19,-29 550.19,-7 503.19,-7"/>
<text text-anchor="start" x="523.19" y="-13.4" font-family="sans-serif" font-size="14.00" fill="#ffc4b9">0</text>
<polygon fill="none" stroke="orange" points="552.19,-7 552.19,-29 589.19,-29 589.19,-7 552.19,-7"/>
<text text-anchor="start" x="567.19" y="-13.4" font-family="sans-serif" font-size="14.00" fill="#ffc4b9">1</text>
<polygon fill="none" stroke="orange" points="500.19,-4 500.19,-80 592.19,-80 592.19,-4 500.19,-4"/>
</g>
<!-- cell&#45;&gt;priorities -->
<g id="edge8" class="edge" data-name="cell-&gt;priorities">

<path fill="none" stroke="#ffc4b9" stroke-width="2" d="M547.19,-207.1C593.03,-207.1 580.85,-142.26 565.47,-94.1"/>
<polygon fill="#ffc4b9" stroke="#ffc4b9" stroke-width="2" points="568.73,-92.8 562.27,-84.41 562.09,-95 568.73,-92.8"/>
</g><g id="node9" class="node" pointer-events="visible" data-name="priorities2" data-comment="cell-&gt;priorities">

<polygon fill="none" stroke="orange" points="139.19,-43 139.19,-65 186.19,-65 186.19,-43 139.19,-43"/>
<text text-anchor="start" x="141.69" y="-49.4" font-family="sans-serif" font-size="14.00" fill="#ffc4b9">priority</text>
<polygon fill="none" stroke="orange" points="188.19,-43 188.19,-65 225.19,-65 225.19,-43 188.19,-43"/>
<text text-anchor="start" x="191.14" y="-49.4" font-family="sans-serif" font-size="14.00" fill="#ffc4b9">count</text>
<polygon fill="none" stroke="orange" points="139.19,-19 139.19,-41 186.19,-41 186.19,-19 139.19,-19"/>
<text text-anchor="start" x="159.19" y="-25.4" font-family="sans-serif" font-size="14.00" fill="#ffc4b9">1</text>
<polygon fill="none" stroke="orange" points="188.19,-19 188.19,-41 225.19,-41 225.19,-19 188.19,-19"/>
<text text-anchor="start" x="203.19" y="-25.4" font-family="sans-serif" font-size="14.00" fill="#ffc4b9">1</text>
<polygon fill="none" stroke="orange" points="136.19,-16 136.19,-68 228.19,-68 228.19,-16 136.19,-16"/>
</g>
<!-- s4 -->
<g id="node7" class="node" pointer-events="visible" data-name="s4">

<polygon fill="none" stroke="orange" stroke-width="2" points="437,-256.7 437,-306.3 509.38,-306.3 509.38,-256.7 437,-256.7"/>
<text text-anchor="middle" x="473.19" y="-289.7" font-family="sans-serif" font-size="14.00" fill="#ffc4b9">priority: 0</text>
<polyline fill="none" stroke="orange" stroke-width="2" points="437,-281.5 509.38,-281.5"/>
<text text-anchor="middle" x="472.97" y="-264.9" font-family="sans-serif" font-size="14.00" fill="#ffc4b9">ptr: *</text>
<text text-anchor="middle" x="419.5" y="-311" font-family="sans-serif" font-size="14.00" fill="#ffc4b9">empty</text>
</g><g id="edge10" class="edge" data-name="cell2-&gt;priorities2" data-comment="s4">

<path fill="none" stroke="#ffc4b9" stroke-width="2" d="M183.19,-207.1C233.03,-207.1 214.28,-130.46 197.42,-81.93"/>
<polygon fill="#ffc4b9" stroke="#ffc4b9" stroke-width="2" points="200.65,-80.57 193.98,-72.34 194.06,-82.93 200.65,-80.57"/>
</g>
<!-- s4&#45;&gt;buffer -->
<!-- s4&#45;&gt;buffer -->
<!-- s4&#45;&gt;buffer -->
<!-- s4&#45;&gt;buffer -->
<g id="edge5" class="edge" data-name="s4-&gt;buffer">

<path fill="none" stroke="#ffc4b9" stroke-width="2" stroke-dasharray="1,5" d="M465.92,-256.64C462.81,-245.63 459.4,-232.35 457.19,-220.2 454.1,-203.22 457.8,-81.68 445.86,-49.7"/>
<polygon fill="#ffc4b9" stroke="#ffc4b9" stroke-width="2" points="448.38,-47.27 439.19,-42 443.09,-51.85 448.38,-47.27"/>
</g>
<!-- s4&#45;&gt;cell -->

<!-- s4&#45;&gt;cell -->
<!-- s4&#45;&gt;cell -->
<!-- s4&#45;&gt;cell -->

<!-- s4&#45;&gt;cell -->
<!-- s4&#45;&gt;cell -->
<g id="edge6" class="edge" data-name="s4-&gt;cell">

<path fill="none" stroke="#ffc4b9" stroke-width="2" d="M510.19,-269.5C528.91,-269.5 512.85,-249.69 507.66,-230.24"/>
<polygon fill="#ffc4b9" stroke="#ffc4b9" stroke-width="2" points="511.11,-229.58 506.19,-220.2 504.18,-230.6 511.11,-229.58"/>
</g>






</g>
</svg>