<?xml version="1.0" standalone="no"?>
<svg xmlns="http://www.w3.org/2000/svg" xmlns:xlink="http://www.w3.org/1999/xlink" width="380pt" height="352pt" viewBox="0.00 0.00 379.80 352.40">
<g id="graph0" class="graph" transform="translate(19.742370796197783,316.57526522982596) scale(0.9119331655197686)" data-name="structs">

<polygon fill="#1f1a30" stroke="none" points="-14.4,14.4 -14.4,-338 365.4,-338 365.4,14.4 -14.4,14.4" style=""/>
<!-- s3 -->
<g id="node1" class="node" pointer-events="visible" data-name="s3">

<polygon fill="none" stroke="orange" stroke-width="2" points="97.81,-256.7 97.81,-306.3 170.19,-306.3 170.19,-256.7 97.81,-256.7" style=""/>
<text text-anchor="middle" x="134" y="-289.7" font-family="sans-serif" font-size="14.00" fill="#ffc4b9" style="">priority: 2</text>
<polyline fill="none" stroke="orange" stroke-width="2" points="97.81,-281.5 170.19,-281.5" style=""/>
<text text-anchor="middle" x="133.78" y="-264.9" font-family="sans-serif" font-size="14.00" fill="#ffc4b9" style="">ptr: *</text>
<text text-anchor="middle" x="91.2" y="-311" font-family="sans-serif" font-size="14.00" fill="#ffc4b9" style="">yz</text>
</g>
<!-- buffer -->
<g id="node2" class="node" pointer-events="visible" data-name="buffer">

<polygon fill="none" stroke="orange" stroke-width="2" points="5.39,-24 5.39,-60 188.61,-60 188.61,-24 5.39,-24" style=""/>
<text text-anchor="middle" x="16.89" y="-37.8" font-family="sans-serif" font-size="14.00" fill="#ffc4b9" style="">_</text>
<polyline fill="none" stroke="orange" stroke-width="2" points="28.39,-24 28.39,-60" style=""/>
<text text-anchor="middle" x="39.89" y="-37.8" font-family="sans-serif" font-size="14.00" fill="#ffc4b9" style="">_</text>
<polyline fill="none" stroke="orange" stroke-width="2" points="51.39,-24 51.39,-60" style=""/>
<text text-anchor="middle" x="62.89" y="-37.8" font-family="sans-serif" font-size="14.00" fill="#ffc4b9" style="">_</text>
<polyline fill="none" stroke="orange" stroke-width="2" points="74.39,-24 74.39,-60" style=""/>
<text text-anchor="middle" x="85.89" y="-37.8" font-family="sans-serif" font-size="14.00" fill="#ffc4b9" style="">_</text>
<polyline fill="none" stroke="orange" stroke-width="2" points="97.39,-24 97.39,-60" style=""/>
<text text-anchor="middle" x="108.89" y="-37.8" font-family="sans-serif" font-size="14.00" fill="#ffc4b9" style="">_</text>
<polyline fill="none" stroke="orange" stroke-width="2" points="120.39,-24 120.39,-60" style=""/>
<text text-anchor="middle" x="131.89" y="-37.8" font-family="sans-serif" font-size="14.00" fill="#ffc4b9" style="">_</text>
<polyline fill="none" stroke="orange" stroke-width="2" points="143.39,-24 143.39,-60" style=""/>
<text text-anchor="middle" x="154.89" y="-37.8" font-family="sans-serif" font-size="14.00" fill="#ffc4b9" style="">y</text>
<polyline fill="none" stroke="orange" stroke-width="2" points="166.39,-24 166.39,-60" style=""/>
<text text-anchor="middle" x="177.5" y="-37.8" font-family="sans-serif" font-size="14.00" fill="#ffc4b9" style="">z</text>
</g>
<!-- s3&#45;&gt;buffer -->
<g id="edge1" class="edge" data-name="s3-&gt;buffer">

<path fill="none" stroke="#ffc4b9" stroke-width="2" stroke-dasharray="1,5" d="M125.91,-256.62C112.91,-213.5 92.93,-122.15 136.16,-68.61" style=""/>
<polygon fill="#ffc4b9" stroke="#ffc4b9" stroke-width="2" points="138.92,-70.78 143,-61 133.71,-66.1 138.92,-70.78" style=""/>
</g>
<!-- cell -->
<g id="node3" class="node" pointer-events="visible" data-name="cell">

<polygon fill="none" stroke="orange" stroke-width="2" points="216.53,-120.5 216.53,-219.7 297.47,-219.7 297.47,-120.5 216.53,-120.5" style=""/>
<text text-anchor="middle" x="257" y="-203.1" font-family="sans-serif" font-size="14.00" fill="#ffc4b9" style="">priorities: *</text>
<polyline fill="none" stroke="orange" stroke-width="2" points="216.53,-194.9 297.47,-194.9" style=""/>
<text text-anchor="middle" x="256.78" y="-178.3" font-family="sans-serif" font-size="14.00" fill="#ffc4b9" style="">len: 2</text>
<polyline fill="none" stroke="orange" stroke-width="2" points="216.53,-170.1 297.47,-170.1" style=""/>
<text text-anchor="middle" x="256.94" y="-153.5" font-family="sans-serif" font-size="14.00" fill="#ffc4b9" style="">cap: 8</text>
<polyline fill="none" stroke="orange" stroke-width="2" points="216.53,-145.3 297.47,-145.3" style=""/>
<text text-anchor="middle" x="256.5" y="-128.7" font-family="sans-serif" font-size="14.00" fill="#ffc4b9" style="">ptr: *</text>
</g>
<!-- s3&#45;&gt;cell -->
<g id="edge2" class="edge" data-name="s3-&gt;cell">

<path fill="none" stroke="#ffc4b9" stroke-width="2" d="M171,-269.5C177.9,-269.5 173.86,-260.8 179,-256.2 204.43,-233.4 246.78,-253.14 255.43,-230.22" style=""/>
<polygon fill="#ffc4b9" stroke="#ffc4b9" stroke-width="2" points="258.91,-230.62 257,-220.2 251.99,-229.54 258.91,-230.62" style=""/>
</g>
<!-- cell&#45;&gt;buffer -->
<g id="edge5" class="edge" data-name="cell-&gt;buffer">

<path fill="none" stroke="#ffc4b9" stroke-width="2" d="M297,-133.1C302.84,-133.1 299.87,-124.38 296,-120 255.56,-74.22 0.6,-102.62 0,-70.07" style=""/>
<polygon fill="#ffc4b9" stroke="#ffc4b9" stroke-width="2" points="3.24,-71.45 5,-61 -2.89,-68.07 3.24,-71.45" style=""/>
</g>
<!-- priorities -->
<g id="node5" class="node" pointer-events="visible" data-name="priorities">

<polygon fill="none" stroke="orange" points="254,-55 254,-77 301,-77 301,-55 254,-55" style=""/>
<text text-anchor="start" x="256.5" y="-61.4" font-family="sans-serif" font-size="14.00" fill="#ffc4b9" style="">priority</text>
<polygon fill="none" stroke="orange" points="303,-55 303,-77 340,-77 340,-55 303,-55" style=""/>
<text text-anchor="start" x="305.95" y="-61.4" font-family="sans-serif" font-size="14.00" fill="#ffc4b9" style="">count</text>
<polygon fill="none" stroke="orange" points="254,-31 254,-53 301,-53 301,-31 254,-31" style=""/>
<text text-anchor="start" x="274" y="-37.4" font-family="sans-serif" font-size="14.00" fill="#ffc4b9" style="">2</text>
<polygon fill="none" stroke="orange" points="303,-31 303,-53 340,-53 340,-31 303,-31" style=""/>
<text text-anchor="start" x="318" y="-37.4" font-family="sans-serif" font-size="14.00" fill="#ffc4b9" style="">1</text>
<polygon fill="none" stroke="orange" points="254,-7 254,-29 301,-29 301,-7 254,-7" style=""/>
<text text-anchor="start" x="274" y="-13.4" font-family="sans-serif" font-size="14.00" fill="#ffc4b9" style="">0</text>
<polygon fill="none" stroke="orange" points="303,-7 303,-29 340,-29 340,-7 303,-7" style=""/>
<text text-anchor="start" x="318" y="-13.4" font-family="sans-serif" font-size="14.00" fill="#ffc4b9" style="">1</text>
<polygon fill="none" stroke="orange" points="251,-4 251,-80 343,-80 343,-4 251,-4" style=""/>
</g>
<!-- cell&#45;&gt;priorities -->
<g id="edge6" class="edge" data-name="cell-&gt;priorities">

<path fill="none" stroke="#ffc4b9" stroke-width="2" d="M298,-207.1C343.85,-207.1 331.66,-142.26 316.29,-94.1" style=""/>
<polygon fill="#ffc4b9" stroke="#ffc4b9" stroke-width="2" points="319.54,-92.8 313.08,-84.41 312.9,-95 319.54,-92.8" style=""/>
</g>
<!-- s4 -->
<g id="node4" class="node" pointer-events="visible" data-name="s4">

<polygon fill="none" stroke="orange" stroke-width="2" points="187.81,-256.7 187.81,-306.3 260.19,-306.3 260.19,-256.7 187.81,-256.7" style=""/>
<text text-anchor="middle" x="224" y="-289.7" font-family="sans-serif" font-size="14.00" fill="#ffc4b9" style="">priority: 0</text>
<polyline fill="none" stroke="orange" stroke-width="2" points="187.81,-281.5 260.19,-281.5" style=""/>
<text text-anchor="middle" x="223.78" y="-264.9" font-family="sans-serif" font-size="14.00" fill="#ffc4b9" style="">ptr: *</text>
<text text-anchor="middle" x="170.31" y="-311" font-family="sans-serif" font-size="14.00" fill="#ffc4b9" style="">empty</text>
</g>
<!-- s4&#45;&gt;buffer -->
<g id="edge3" class="edge" data-name="s4-&gt;buffer">

<path fill="none" stroke="#ffc4b9" stroke-width="2" stroke-dasharray="1,5" d="M216.73,-256.64C213.63,-245.63 210.21,-232.35 208,-220.2 204.91,-203.22 208.61,-81.68 196.67,-49.7" style=""/>
<polygon fill="#ffc4b9" stroke="#ffc4b9" stroke-width="2" points="199.19,-47.27 190,-42 193.9,-51.85 199.19,-47.27" style=""/>
</g>
<!-- s4&#45;&gt;cell -->
<g id="edge4" class="edge" data-name="s4-&gt;cell">

<path fill="none" stroke="#ffc4b9" stroke-width="2" d="M261,-269.5C279.72,-269.5 263.66,-249.69 258.48,-230.24" style=""/>
<polygon fill="#ffc4b9" stroke="#ffc4b9" stroke-width="2" points="261.92,-229.58 257,-220.2 254.99,-230.6 261.92,-229.58" style=""/>
</g>
</g>
</svg>