<?xml version="1.0" standalone="no"?>
<svg xmlns="http://www.w3.org/2000/svg" xmlns:xlink="http://www.w3.org/1999/xlink" width="414pt" height="376pt" viewBox="0.00 0.00 413.66 376.40">
<g id="graph0" class="graph" transform="translate(14.399999618530273,362) scale(1)" data-name="structs">

<polygon fill="#1f1a30" stroke="none" points="-14.4,14.4 -14.4,-362 399.26,-362 399.26,14.4 -14.4,14.4" style=""/>
<!-- s1 -->
<g id="node1" class="node" pointer-events="visible" data-name="s1">

<polygon fill="none" stroke="orange" stroke-width="2" points="37.32,-280.7 37.32,-330.3 109.71,-330.3 109.71,-280.7 37.32,-280.7" style=""/>
<text text-anchor="middle" x="73.52" y="-313.7" font-family="sans-serif" font-size="14.00" fill="#ffc4b9" style="">priority: 4</text>
<polyline fill="none" stroke="orange" stroke-width="2" points="37.32,-305.5 109.71,-305.5" style=""/>
<text text-anchor="middle" x="73.29" y="-288.9" font-family="sans-serif" font-size="14.00" fill="#ffc4b9" style="">ptr: *</text>
<text text-anchor="middle" x="18.66" y="-335" font-family="sans-serif" font-size="14.00" fill="#ffc4b9" style="">wxyz1</text>
</g>
<!-- buffer -->
<g id="node2" class="node" pointer-events="visible" data-name="buffer">

<polygon fill="none" stroke="orange" stroke-width="2" points="69.35,-36 69.35,-72 255.68,-72 255.68,-36 69.35,-36" style=""/>
<text text-anchor="middle" x="80.85" y="-49.8" font-family="sans-serif" font-size="14.00" fill="#ffc4b9" style="">_</text>
<polyline fill="none" stroke="orange" stroke-width="2" points="92.35,-36 92.35,-72" style=""/>
<text text-anchor="middle" x="103.85" y="-49.8" font-family="sans-serif" font-size="14.00" fill="#ffc4b9" style="">_</text>
<polyline fill="none" stroke="orange" stroke-width="2" points="115.35,-36 115.35,-72" style=""/>
<text text-anchor="middle" x="126.85" y="-49.8" font-family="sans-serif" font-size="14.00" fill="#ffc4b9" style="">_</text>
<polyline fill="none" stroke="orange" stroke-width="2" points="138.35,-36 138.35,-72" style=""/>
<text text-anchor="middle" x="149.85" y="-49.8" font-family="sans-serif" font-size="14.00" fill="#ffc4b9" style="">_</text>
<polyline fill="none" stroke="orange" stroke-width="2" points="161.35,-36 161.35,-72" style=""/>
<text text-anchor="middle" x="174.41" y="-49.8" font-family="sans-serif" font-size="14.00" fill="#ffc4b9" style="">w</text>
<polyline fill="none" stroke="orange" stroke-width="2" points="187.46,-36 187.46,-72" style=""/>
<text text-anchor="middle" x="198.96" y="-49.8" font-family="sans-serif" font-size="14.00" fill="#ffc4b9" style="">x</text>
<polyline fill="none" stroke="orange" stroke-width="2" points="210.46,-36 210.46,-72" style=""/>
<text text-anchor="middle" x="221.96" y="-49.8" font-family="sans-serif" font-size="14.00" fill="#ffc4b9" style="">y</text>
<polyline fill="none" stroke="orange" stroke-width="2" points="233.46,-36 233.46,-72" style=""/>
<text text-anchor="middle" x="244.57" y="-49.8" font-family="sans-serif" font-size="14.00" fill="#ffc4b9" style="">z</text>
</g>
<!-- s1&#45;&gt;buffer -->
<g id="edge1" class="edge" data-name="s1-&gt;buffer">

<path fill="none" stroke="#ffc4b9" stroke-width="2" stroke-dasharray="1,5" d="M76.17,-280.36C82.25,-235.89 101.05,-140.12 154.47,-80.45" style=""/>
<polygon fill="#ffc4b9" stroke="#ffc4b9" stroke-width="2" points="157.19,-82.67 161.52,-73 152.1,-77.86 157.19,-82.67" style=""/>
</g>
<!-- cell -->
<g id="node3" class="node" pointer-events="visible" data-name="cell">

<polygon fill="none" stroke="orange" stroke-width="2" points="236.05,-144.5 236.05,-243.7 316.98,-243.7 316.98,-144.5 236.05,-144.5" style=""/>
<text text-anchor="middle" x="276.52" y="-227.1" font-family="sans-serif" font-size="14.00" fill="#ffc4b9" style="">priorities: *</text>
<polyline fill="none" stroke="orange" stroke-width="2" points="236.05,-218.9 316.98,-218.9" style=""/>
<text text-anchor="middle" x="276.29" y="-202.3" font-family="sans-serif" font-size="14.00" fill="#ffc4b9" style="">len: 4</text>
<polyline fill="none" stroke="orange" stroke-width="2" points="236.05,-194.1 316.98,-194.1" style=""/>
<text text-anchor="middle" x="276.46" y="-177.5" font-family="sans-serif" font-size="14.00" fill="#ffc4b9" style="">cap: 8</text>
<polyline fill="none" stroke="orange" stroke-width="2" points="236.05,-169.3 316.98,-169.3" style=""/>
<text text-anchor="middle" x="276.02" y="-152.7" font-family="sans-serif" font-size="14.00" fill="#ffc4b9" style="">ptr: *</text>
</g>
<!-- s1&#45;&gt;cell -->
<g id="edge2" class="edge" data-name="s1-&gt;cell">

<path fill="none" stroke="#ffc4b9" stroke-width="2" d="M110.52,-293.5C117.41,-293.5 112.93,-284.25 118.52,-280.2 173.78,-240.19 266.12,-308.3 275.7,-254.38" style=""/>
<polygon fill="#ffc4b9" stroke="#ffc4b9" stroke-width="2" points="279.21,-254.45 276.52,-244.2 272.23,-253.89 279.21,-254.45" style=""/>
</g>
<!-- cell&#45;&gt;buffer -->
<g id="edge9" class="edge" data-name="cell-&gt;buffer">

<path fill="none" stroke="#ffc4b9" stroke-width="2" d="M316.52,-157.1C322.35,-157.1 319.2,-148.53 315.52,-144 246.08,-58.66 5.76,-147.18 62.59,-80.44" style=""/>
<polygon fill="#ffc4b9" stroke="#ffc4b9" stroke-width="2" points="65.26,-82.7 69.52,-73 60.14,-77.93 65.26,-82.7" style=""/>
</g>
<!-- priorities -->
<g id="node7" class="node" pointer-events="visible" data-name="priorities">

<polygon fill="none" stroke="orange" points="284.52,-79 284.52,-101 331.52,-101 331.52,-79 284.52,-79" style=""/>
<text text-anchor="start" x="287.02" y="-85.4" font-family="sans-serif" font-size="14.00" fill="#ffc4b9" style="">priority</text>
<polygon fill="none" stroke="orange" points="333.52,-79 333.52,-101 370.52,-101 370.52,-79 333.52,-79" style=""/>
<text text-anchor="start" x="336.46" y="-85.4" font-family="sans-serif" font-size="14.00" fill="#ffc4b9" style="">count</text>
<polygon fill="none" stroke="orange" points="284.52,-55 284.52,-77 331.52,-77 331.52,-55 284.52,-55" style=""/>
<text text-anchor="start" x="304.52" y="-61.4" font-family="sans-serif" font-size="14.00" fill="#ffc4b9" style="">4</text>
<polygon fill="none" stroke="orange" points="333.52,-55 333.52,-77 370.52,-77 370.52,-55 333.52,-55" style=""/>
<text text-anchor="start" x="348.52" y="-61.4" font-family="sans-serif" font-size="14.00" fill="#ffc4b9" style="">2</text>
<polygon fill="none" stroke="orange" points="284.52,-31 284.52,-53 331.52,-53 331.52,-31 284.52,-31" style=""/>
<text text-anchor="start" x="304.52" y="-37.4" font-family="sans-serif" font-size="14.00" fill="#ffc4b9" style="">2</text>
<polygon fill="none" stroke="orange" points="333.52,-31 333.52,-53 370.52,-53 370.52,-31 333.52,-31" style=""/>
<text text-anchor="start" x="348.52" y="-37.4" font-family="sans-serif" font-size="14.00" fill="#ffc4b9" style="">1</text>
<polygon fill="none" stroke="orange" points="284.52,-7 284.52,-29 331.52,-29 331.52,-7 284.52,-7" style=""/>
<text text-anchor="start" x="304.52" y="-13.4" font-family="sans-serif" font-size="14.00" fill="#ffc4b9" style="">0</text>
<polygon fill="none" stroke="orange" points="333.52,-7 333.52,-29 370.52,-29 370.52,-7 333.52,-7" style=""/>
<text text-anchor="start" x="348.52" y="-13.4" font-family="sans-serif" font-size="14.00" fill="#ffc4b9" style="">1</text>
<polygon fill="none" stroke="orange" points="281.52,-4 281.52,-104 373.52,-104 373.52,-4 281.52,-4" style=""/>
</g>
<!-- cell&#45;&gt;priorities -->
<g id="edge10" class="edge" data-name="cell-&gt;priorities">

<path fill="none" stroke="#ffc4b9" stroke-width="2" d="M317.52,-231.1C364.17,-231.1 358.84,-168.74 346.87,-118.23" style=""/>
<polygon fill="#ffc4b9" stroke="#ffc4b9" stroke-width="2" points="350.21,-117.17 344.4,-108.31 343.42,-118.86 350.21,-117.17" style=""/>
</g>
<!-- s2 -->
<g id="node4" class="node" pointer-events="visible" data-name="s2">

<polygon fill="none" stroke="orange" stroke-width="2" points="127.32,-280.7 127.32,-330.3 199.71,-330.3 199.71,-280.7 127.32,-280.7" style=""/>
<text text-anchor="middle" x="163.52" y="-313.7" font-family="sans-serif" font-size="14.00" fill="#ffc4b9" style="">priority: 4</text>
<polyline fill="none" stroke="orange" stroke-width="2" points="127.32,-305.5 199.71,-305.5" style=""/>
<text text-anchor="middle" x="163.29" y="-288.9" font-family="sans-serif" font-size="14.00" fill="#ffc4b9" style="">ptr: *</text>
<text text-anchor="middle" x="108.66" y="-335" font-family="sans-serif" font-size="14.00" fill="#ffc4b9" style="">wxyz2</text>
</g>
<!-- s2&#45;&gt;buffer -->
<g id="edge3" class="edge" data-name="s2-&gt;buffer">

<path fill="none" stroke="#ffc4b9" stroke-width="2" stroke-dasharray="1,5" d="M153.65,-280.41C136.9,-235.31 108.9,-137.59 154.57,-80.74" style=""/>
<polygon fill="#ffc4b9" stroke="#ffc4b9" stroke-width="2" points="157.44,-82.78 161.52,-73 152.23,-78.11 157.44,-82.78" style=""/>
</g>
<!-- s2&#45;&gt;cell -->
<g id="edge4" class="edge" data-name="s2-&gt;cell">

<path fill="none" stroke="#ffc4b9" stroke-width="2" d="M200.52,-293.5C207.41,-293.5 203.51,-284.94 208.52,-280.2 230.44,-259.44 266.65,-273.93 274.84,-254.08" style=""/>
<polygon fill="#ffc4b9" stroke="#ffc4b9" stroke-width="2" points="278.29,-254.65 276.52,-244.2 271.39,-253.47 278.29,-254.65" style=""/>
</g>
<!-- s3 -->
<g id="node5" class="node" pointer-events="visible" data-name="s3">

<polygon fill="none" stroke="orange" stroke-width="2" points="217.32,-280.7 217.32,-330.3 289.71,-330.3 289.71,-280.7 217.32,-280.7" style=""/>
<text text-anchor="middle" x="253.52" y="-313.7" font-family="sans-serif" font-size="14.00" fill="#ffc4b9" style="">priority: 2</text>
<polyline fill="none" stroke="orange" stroke-width="2" points="217.32,-305.5 289.71,-305.5" style=""/>
<text text-anchor="middle" x="253.29" y="-288.9" font-family="sans-serif" font-size="14.00" fill="#ffc4b9" style="">ptr: *</text>
<text text-anchor="middle" x="210.72" y="-335" font-family="sans-serif" font-size="14.00" fill="#ffc4b9" style="">yz</text>
</g>
<!-- s3&#45;&gt;buffer -->
<g id="edge5" class="edge" data-name="s3-&gt;buffer">

<path fill="none" stroke="#ffc4b9" stroke-width="2" stroke-dasharray="1,5" d="M237.53,-280.57C209.58,-235.66 158.89,-138.09 203.87,-80.51" style=""/>
<polygon fill="#ffc4b9" stroke="#ffc4b9" stroke-width="2" points="206.51,-82.81 210.52,-73 201.27,-78.17 206.51,-82.81" style=""/>
</g>
<!-- s3&#45;&gt;cell -->
<g id="edge6" class="edge" data-name="s3-&gt;cell">

<path fill="none" stroke="#ffc4b9" stroke-width="2" d="M290.52,-293.5C296.44,-293.5 290.76,-286 289.52,-280.2 286.79,-267.46 280.62,-263.1 277.87,-254.12" style=""/>
<polygon fill="#ffc4b9" stroke="#ffc4b9" stroke-width="2" points="281.34,-253.63 276.52,-244.2 274.41,-254.58 281.34,-253.63" style=""/>
</g>
<!-- s4 -->
<g id="node6" class="node" pointer-events="visible" data-name="s4">

<polygon fill="none" stroke="orange" stroke-width="2" points="308.32,-280.7 308.32,-330.3 380.71,-330.3 380.71,-280.7 308.32,-280.7" style=""/>
<text text-anchor="middle" x="344.52" y="-313.7" font-family="sans-serif" font-size="14.00" fill="#ffc4b9" style="">priority: 0</text>
<polyline fill="none" stroke="orange" stroke-width="2" points="308.32,-305.5 380.71,-305.5" style=""/>
<text text-anchor="middle" x="344.29" y="-288.9" font-family="sans-serif" font-size="14.00" fill="#ffc4b9" style="">ptr: *</text>
<text text-anchor="middle" x="290.83" y="-335" font-family="sans-serif" font-size="14.00" fill="#ffc4b9" style="">empty</text>
</g>
<!-- s4&#45;&gt;buffer -->
<g id="edge7" class="edge" data-name="s4-&gt;buffer">

<path fill="none" stroke="#ffc4b9" stroke-width="2" stroke-dasharray="1,5" d="M347.9,-280.53C351.32,-247.09 352.79,-185.84 325.52,-144 308.32,-117.63 282.09,-134.12 264.52,-108 259.65,-100.77 263.91,-76.03 262.19,-62.7" style=""/>
<polygon fill="#ffc4b9" stroke="#ffc4b9" stroke-width="2" points="264.91,-60.46 256.52,-54 259.05,-64.29 264.91,-60.46" style=""/>
</g>
<!-- s4&#45;&gt;cell -->
<g id="edge8" class="edge" data-name="s4-&gt;cell">

<path fill="none" stroke="#ffc4b9" stroke-width="2" d="M381.52,-293.5C387.44,-293.5 384.13,-284.9 380.52,-280.2 353.12,-244.63 288.38,-285.25 277.95,-254.31" style=""/>
<polygon fill="#ffc4b9" stroke="#ffc4b9" stroke-width="2" points="281.38,-253.61 276.52,-244.2 274.45,-254.59 281.38,-253.61" style=""/>
</g>
</g>
</svg>