<?xml version="1.0" standalone="no"?>
<svg xmlns="http://www.w3.org/2000/svg" xmlns:xlink="http://www.w3.org/1999/xlink" width="503pt" height="400pt" viewBox="0.00 0.00 502.77 400.4">
<g id="graph0" class="graph" transform="translate(141.80213504245637,330.24917431829874) scale(0.78078649260739)" data-name="structs">

<polygon fill="#1f1a30" stroke="none" points="-14.4,14.4 -14.4,-386 488.37,-386 488.37,14.4 -14.4,14.4"/>
<!-- s0 -->
<g id="node1" class="node" pointer-events="visible" data-name="s0">

<polygon fill="none" stroke="orange" stroke-width="2" points="37.32,-304.7 37.32,-354.3 109.71,-354.3 109.71,-304.7 37.32,-304.7"/>
<text text-anchor="middle" x="73.52" y="-337.7" font-family="sans-serif" font-size="14.00" fill="#ffc4b9">priority: 4</text>
<polyline fill="none" stroke="orange" stroke-width="2" points="37.32,-329.5 109.71,-329.5"/>
<text text-anchor="middle" x="73.29" y="-312.9" font-family="sans-serif" font-size="14.00" fill="#ffc4b9">ptr: *</text>
<text text-anchor="middle" x="18.66" y="-359" font-family="sans-serif" font-size="14.00" fill="#ffc4b9">vwxyz</text>
</g>
<!-- buffer -->
<g id="node2" class="node" pointer-events="visible" data-name="buffer">

<polygon fill="none" stroke="orange" stroke-width="2" points="122.35,-48 122.35,-84 308.68,-84 308.68,-48 122.35,-48"/>
<text text-anchor="middle" x="133.85" y="-61.8" font-family="sans-serif" font-size="14.00" fill="#ffc4b9">_</text>
<polyline fill="none" stroke="orange" stroke-width="2" points="145.35,-48 145.35,-84"/>
<text text-anchor="middle" x="156.85" y="-61.8" font-family="sans-serif" font-size="14.00" fill="#ffc4b9">_</text>
<polyline fill="none" stroke="orange" stroke-width="2" points="168.35,-48 168.35,-84"/>
<text text-anchor="middle" x="179.85" y="-61.8" font-family="sans-serif" font-size="14.00" fill="#ffc4b9">_</text>
<polyline fill="none" stroke="orange" stroke-width="2" points="191.35,-48 191.35,-84"/>
<text text-anchor="middle" x="202.85" y="-61.8" font-family="sans-serif" font-size="14.00" fill="#ffc4b9">v</text>
<polyline fill="none" stroke="orange" stroke-width="2" points="214.35,-48 214.35,-84"/>
<text text-anchor="middle" x="227.41" y="-61.8" font-family="sans-serif" font-size="14.00" fill="#ffc4b9">w</text>
<polyline fill="none" stroke="orange" stroke-width="2" points="240.46,-48 240.46,-84"/>
<text text-anchor="middle" x="251.96" y="-61.8" font-family="sans-serif" font-size="14.00" fill="#ffc4b9">x</text>
<polyline fill="none" stroke="orange" stroke-width="2" points="263.46,-48 263.46,-84"/>
<text text-anchor="middle" x="274.96" y="-61.8" font-family="sans-serif" font-size="14.00" fill="#ffc4b9">y</text>
<polyline fill="none" stroke="orange" stroke-width="2" points="286.46,-48 286.46,-84"/>
<text text-anchor="middle" x="297.57" y="-61.8" font-family="sans-serif" font-size="14.00" fill="#ffc4b9">z</text>
</g>
<!-- s0&#45;&gt;buffer -->
<g id="edge1" class="edge" data-name="s0-&gt;buffer">

<path fill="none" stroke="#ffc4b9" stroke-width="2" stroke-dasharray="1,5" d="M79.39,-304.65C91.71,-258.91 124.21,-157.66 184.43,-92.38"/>
<polygon fill="#ffc4b9" stroke="#ffc4b9" stroke-width="2" points="187.12,-94.64 191.52,-85 182.07,-89.79 187.12,-94.64"/>
</g>
<!-- cell -->
<g id="node3" class="node" pointer-events="visible" data-name="cell">

<polygon fill="none" stroke="orange" stroke-width="2" points="242.05,-168.5 242.05,-267.7 322.98,-267.7 322.98,-168.5 242.05,-168.5"/>
<text text-anchor="middle" x="282.52" y="-251.1" font-family="sans-serif" font-size="14.00" fill="#ffc4b9">priorities: *</text>
<polyline fill="none" stroke="orange" stroke-width="2" points="242.05,-242.9 322.98,-242.9"/>
<text text-anchor="middle" x="282.29" y="-226.3" font-family="sans-serif" font-size="14.00" fill="#ffc4b9">len: 5</text>
<polyline fill="none" stroke="orange" stroke-width="2" points="242.05,-218.1 322.98,-218.1"/>
<text text-anchor="middle" x="282.46" y="-201.5" font-family="sans-serif" font-size="14.00" fill="#ffc4b9">cap: 8</text>
<polyline fill="none" stroke="orange" stroke-width="2" points="242.05,-193.3 322.98,-193.3"/>
<text text-anchor="middle" x="282.02" y="-176.7" font-family="sans-serif" font-size="14.00" fill="#ffc4b9">ptr: *</text>
</g>
<!-- s0&#45;&gt;cell -->
<g id="edge2" class="edge" data-name="s0-&gt;cell">

<path fill="none" stroke="#ffc4b9" stroke-width="2" d="M110.52,-317.5C117.41,-317.5 112.91,-308.22 118.52,-304.2 176.06,-262.89 272.13,-334.81 281.73,-278.39"/>
<polygon fill="#ffc4b9" stroke="#ffc4b9" stroke-width="2" points="285.24,-278.44 282.52,-268.2 278.26,-277.9 285.24,-278.44"/>
</g>
<!-- cell&#45;&gt;buffer -->
<g id="edge11" class="edge" data-name="cell-&gt;buffer">

<path fill="none" stroke="#ffc4b9" stroke-width="2" d="M322.52,-181.1C328.35,-181.1 324.94,-172.73 321.52,-168 267.68,-93.52 71.77,-147.88 115.55,-92.7"/>
<polygon fill="#ffc4b9" stroke="#ffc4b9" stroke-width="2" points="118.4,-94.76 122.52,-85 113.21,-90.07 118.4,-94.76"/>
</g>
<!-- priorities -->
<g id="node8" class="node" pointer-events="visible" data-name="priorities">

<polygon fill="none" stroke="orange" points="337.52,-103 337.52,-125 384.52,-125 384.52,-103 337.52,-103"/>
<text text-anchor="start" x="340.02" y="-109.4" font-family="sans-serif" font-size="14.00" fill="#ffc4b9">priority</text>
<polygon fill="none" stroke="orange" points="386.52,-103 386.52,-125 423.52,-125 423.52,-103 386.52,-103"/>
<text text-anchor="start" x="389.46" y="-109.4" font-family="sans-serif" font-size="14.00" fill="#ffc4b9">count</text>
<polygon fill="none" stroke="orange" points="337.52,-79 337.52,-101 384.52,-101 384.52,-79 337.52,-79"/>
<text text-anchor="start" x="357.52" y="-85.4" font-family="sans-serif" font-size="14.00" fill="#ffc4b9">5</text>
<polygon fill="none" stroke="orange" points="386.52,-79 386.52,-101 423.52,-101 423.52,-79 386.52,-79"/>
<text text-anchor="start" x="401.52" y="-85.4" font-family="sans-serif" font-size="14.00" fill="#ffc4b9">1</text>
<polygon fill="none" stroke="orange" points="337.52,-55 337.52,-77 384.52,-77 384.52,-55 337.52,-55"/>
<text text-anchor="start" x="357.52" y="-61.4" font-family="sans-serif" font-size="14.00" fill="#ffc4b9">4</text>
<polygon fill="none" stroke="orange" points="386.52,-55 386.52,-77 423.52,-77 423.52,-55 386.52,-55"/>
<text text-anchor="start" x="401.52" y="-61.4" font-family="sans-serif" font-size="14.00" fill="#ffc4b9">2</text>
<polygon fill="none" stroke="orange" points="337.52,-31 337.52,-53 384.52,-53 384.52,-31 337.52,-31"/>
<text text-anchor="start" x="357.52" y="-37.4" font-family="sans-serif" font-size="14.00" fill="#ffc4b9">2</text>
<polygon fill="none" stroke="orange" points="386.52,-31 386.52,-53 423.52,-53 423.52,-31 386.52,-31"/>
<text text-anchor="start" x="401.52" y="-37.4" font-family="sans-serif" font-size="14.00" fill="#ffc4b9">1</text>
<polygon fill="none" stroke="orange" points="337.52,-7 337.52,-29 384.52,-29 384.52,-7 337.52,-7"/>
<text text-anchor="start" x="357.52" y="-13.4" font-family="sans-serif" font-size="14.00" fill="#ffc4b9">0</text>
<polygon fill="none" stroke="orange" points="386.52,-7 386.52,-29 423.52,-29 423.52,-7 386.52,-7"/>
<text text-anchor="start" x="401.52" y="-13.4" font-family="sans-serif" font-size="14.00" fill="#ffc4b9">1</text>
<polygon fill="none" stroke="orange" points="334.52,-4 334.52,-128 426.52,-128 426.52,-4 334.52,-4"/>
</g>
<!-- cell&#45;&gt;priorities -->
<g id="edge12" class="edge" data-name="cell-&gt;priorities">

<path fill="none" stroke="#ffc4b9" stroke-width="2" d="M323.52,-255.1C373.04,-255.1 384.73,-194.63 385.57,-142.27"/>
<polygon fill="#ffc4b9" stroke="#ffc4b9" stroke-width="2" points="389.07,-142.27 385.6,-132.26 382.07,-142.25 389.07,-142.27"/>
</g>
<!-- s1 -->
<g id="node4" class="node" pointer-events="visible" data-name="s1">

<polygon fill="none" stroke="orange" stroke-width="2" points="127.32,-304.7 127.32,-354.3 199.71,-354.3 199.71,-304.7 127.32,-304.7"/>
<text text-anchor="middle" x="163.52" y="-337.7" font-family="sans-serif" font-size="14.00" fill="#ffc4b9">priority: 4</text>
<polyline fill="none" stroke="orange" stroke-width="2" points="127.32,-329.5 199.71,-329.5"/>
<text text-anchor="middle" x="163.29" y="-312.9" font-family="sans-serif" font-size="14.00" fill="#ffc4b9">ptr: *</text>
<text text-anchor="middle" x="108.66" y="-359" font-family="sans-serif" font-size="14.00" fill="#ffc4b9">wxyz1</text>
</g>
<!-- s1&#45;&gt;buffer -->
<g id="edge3" class="edge" data-name="s1-&gt;buffer">

<path fill="none" stroke="#ffc4b9" stroke-width="2" stroke-dasharray="1,5" d="M160.74,-304.51C156.73,-257.79 154.82,-153.86 207.46,-92.62"/>
<polygon fill="#ffc4b9" stroke="#ffc4b9" stroke-width="2" points="210.29,-94.71 214.52,-85 205.15,-89.96 210.29,-94.71"/>
</g>
<!-- s1&#45;&gt;cell -->
<g id="edge4" class="edge" data-name="s1-&gt;cell">

<path fill="none" stroke="#ffc4b9" stroke-width="2" d="M200.52,-317.5C207.41,-317.5 203.43,-308.86 208.52,-304.2 232.55,-282.21 272.47,-299.85 280.92,-278.13"/>
<polygon fill="#ffc4b9" stroke="#ffc4b9" stroke-width="2" points="284.38,-278.63 282.52,-268.2 277.47,-277.52 284.38,-278.63"/>
</g>
<!-- s2 -->
<g id="node5" class="node" pointer-events="visible" data-name="s2">

<polygon fill="none" stroke="orange" stroke-width="2" points="217.32,-304.7 217.32,-354.3 289.71,-354.3 289.71,-304.7 217.32,-304.7"/>
<text text-anchor="middle" x="253.52" y="-337.7" font-family="sans-serif" font-size="14.00" fill="#ffc4b9">priority: 4</text>
<polyline fill="none" stroke="orange" stroke-width="2" points="217.32,-329.5 289.71,-329.5"/>
<text text-anchor="middle" x="253.29" y="-312.9" font-family="sans-serif" font-size="14.00" fill="#ffc4b9">ptr: *</text>
<text text-anchor="middle" x="198.66" y="-359" font-family="sans-serif" font-size="14.00" fill="#ffc4b9">wxyz2</text>
</g>
<!-- s2&#45;&gt;buffer -->
<g id="edge5" class="edge" data-name="s2-&gt;buffer">

<path fill="none" stroke="#ffc4b9" stroke-width="2" stroke-dasharray="1,5" d="M238.31,-304.42C210.74,-257.55 159.6,-153.35 207.78,-92.56"/>
<polygon fill="#ffc4b9" stroke="#ffc4b9" stroke-width="2" points="210.47,-94.79 214.52,-85 205.25,-90.13 210.47,-94.79"/>
</g>
<!-- s2&#45;&gt;cell -->
<g id="edge6" class="edge" data-name="s2-&gt;cell">

<path fill="none" stroke="#ffc4b9" stroke-width="2" d="M290.52,-317.5C296.44,-317.5 290.3,-310.08 289.52,-304.2 287.89,-292.08 284.76,-287.06 283.3,-278.43"/>
<polygon fill="#ffc4b9" stroke="#ffc4b9" stroke-width="2" points="286.77,-277.9 282.52,-268.2 279.79,-278.44 286.77,-277.9"/>
</g>
<!-- s3 -->
<g id="node6" class="node" pointer-events="visible" data-name="s3">

<polygon fill="none" stroke="orange" stroke-width="2" points="307.32,-304.7 307.32,-354.3 379.71,-354.3 379.71,-304.7 307.32,-304.7"/>
<text text-anchor="middle" x="343.52" y="-337.7" font-family="sans-serif" font-size="14.00" fill="#ffc4b9">priority: 2</text>
<polyline fill="none" stroke="orange" stroke-width="2" points="307.32,-329.5 379.71,-329.5"/>
<text text-anchor="middle" x="343.29" y="-312.9" font-family="sans-serif" font-size="14.00" fill="#ffc4b9">ptr: *</text>
<text text-anchor="middle" x="300.72" y="-359" font-family="sans-serif" font-size="14.00" fill="#ffc4b9">yz</text>
</g>
<!-- s3&#45;&gt;buffer -->
<g id="edge7" class="edge" data-name="s3-&gt;buffer">

<path fill="none" stroke="#ffc4b9" stroke-width="2" stroke-dasharray="1,5" d="M346.08,-304.65C348.6,-272.4 349.78,-213.66 331.52,-168 315.33,-127.53 243.74,-119.87 257.31,-93.1"/>
<polygon fill="#ffc4b9" stroke="#ffc4b9" stroke-width="2" points="260.22,-95.07 263.52,-85 254.66,-90.81 260.22,-95.07"/>
</g>
<!-- s3&#45;&gt;cell -->
<g id="edge8" class="edge" data-name="s3-&gt;cell">

<path fill="none" stroke="#ffc4b9" stroke-width="2" d="M380.52,-317.5C386.44,-317.5 383.08,-308.94 379.52,-304.2 354.24,-270.62 294.13,-306.77 283.98,-278.11"/>
<polygon fill="#ffc4b9" stroke="#ffc4b9" stroke-width="2" points="287.44,-277.58 282.52,-268.2 280.52,-278.6 287.44,-277.58"/>
</g>
<!-- s4 -->
<g id="node7" class="node" pointer-events="visible" data-name="s4">

<polygon fill="none" stroke="orange" stroke-width="2" points="397.32,-304.7 397.32,-354.3 469.71,-354.3 469.71,-304.7 397.32,-304.7"/>
<text text-anchor="middle" x="433.52" y="-337.7" font-family="sans-serif" font-size="14.00" fill="#ffc4b9">priority: 0</text>
<polyline fill="none" stroke="orange" stroke-width="2" points="397.32,-329.5 469.71,-329.5"/>
<text text-anchor="middle" x="433.29" y="-312.9" font-family="sans-serif" font-size="14.00" fill="#ffc4b9">ptr: *</text>
<text text-anchor="middle" x="379.83" y="-359" font-family="sans-serif" font-size="14.00" fill="#ffc4b9">empty</text>
</g>
<!-- s4&#45;&gt;buffer -->
<g id="edge9" class="edge" data-name="s4-&gt;buffer">

<path fill="none" stroke="#ffc4b9" stroke-width="2" stroke-dasharray="1,5" d="M424.18,-304.66C410.88,-272.15 384.5,-212.86 352.52,-168 339.56,-149.83 327.14,-152.13 317.52,-132 312.69,-121.9 319.07,-89.2 316.01,-73.96"/>
<polygon fill="#ffc4b9" stroke="#ffc4b9" stroke-width="2" points="318.55,-71.54 309.52,-66 313.13,-75.96 318.55,-71.54"/>
</g>
<!-- s4&#45;&gt;cell -->
<g id="edge10" class="edge" data-name="s4-&gt;cell">

<path fill="none" stroke="#ffc4b9" stroke-width="2" d="M470.52,-317.5C476.44,-317.5 473.46,-308.63 469.52,-304.2 415.74,-243.85 294.11,-343.14 283.29,-278.45"/>
<polygon fill="#ffc4b9" stroke="#ffc4b9" stroke-width="2" points="286.76,-277.91 282.52,-268.2 279.78,-278.43 286.76,-277.91"/>
</g>
</g>
</svg>