<?xml version="1.0" encoding="UTF-8" standalone="no"?>
<!DOCTYPE svg PUBLIC "-//W3C//DTD SVG 1.1//EN"
 "http://www.w3.org/Graphics/SVG/1.1/DTD/svg11.dtd">
<!-- Generated by graphviz version 2.43.0 (0)
 -->
<!-- Title: structs Pages: 1 -->
<svg width="705pt" height="447pt"
 viewBox="0.00 0.00 705.00 447.00" xmlns="http://www.w3.org/2000/svg" xmlns:xlink="http://www.w3.org/1999/xlink">
<g id="graph0" class="graph" transform="scale(1 1) rotate(0) translate(18 429)">
<title>structs</title>
<polygon fill="#1f1a30" stroke="transparent" points="-18,18 -18,-429 687,-429 687,18 -18,18"/>
<g id="clust1" class="cluster">
<title>cluster_stack</title>
<polygon fill="#1f1a30" stroke="transparent" points="8,-302 8,-403 564,-403 564,-302 8,-302"/>
</g>
<g id="clust2" class="cluster">
<title>cluster_s5</title>
<polygon fill="#1f1a30" stroke="transparent" points="16,-310 16,-395 98,-395 98,-310 16,-310"/>
<text text-anchor="middle" x="54.5" y="-380.6" font-family="Courier,monospace" font-weight="bold" font-size="13.00" fill="#ffc4b9">the_book</text>
</g>
<g id="clust3" class="cluster">
<title>cluster_s4</title>
<polygon fill="#1f1a30" stroke="transparent" points="113,-310 113,-395 227,-395 227,-310 113,-310"/>
<text text-anchor="middle" x="170" y="-380.6" font-family="Courier,monospace" font-weight="bold" font-size="13.00" fill="#ffc4b9">rustonomicon2</text>
</g>
<g id="clust4" class="cluster">
<title>cluster_s3</title>
<polygon fill="#1f1a30" stroke="transparent" points="248,-310 248,-395 355,-395 355,-310 248,-310"/>
<text text-anchor="middle" x="301.5" y="-380.6" font-family="Courier,monospace" font-weight="bold" font-size="13.00" fill="#ffc4b9">rustonomicon</text>
</g>
<g id="clust5" class="cluster">
<title>cluster_s2</title>
<polygon fill="#1f1a30" stroke="transparent" points="374,-310 374,-395 446,-395 446,-310 374,-310"/>
<text text-anchor="middle" x="408.5" y="-380.6" font-family="Courier,monospace" font-weight="bold" font-size="13.00" fill="#ffc4b9">nomicon</text>
</g>
<g id="clust6" class="cluster">
<title>cluster_s1</title>
<polygon fill="#1f1a30" stroke="transparent" points="484,-310 484,-395 556,-395 556,-310 484,-310"/>
<text text-anchor="middle" x="507.5" y="-380.6" font-family="Courier,monospace" font-weight="bold" font-size="13.00" fill="#ffc4b9">icon</text>
</g>
<g id="clust7" class="cluster">
<title>cluster_phantom_edges</title>
<polygon fill="#1f1a30" stroke="transparent" points="109,-37 109,-90 525,-90 525,-37 109,-37"/>
</g>
<!-- s5 -->
<g id="node1" class="node">
<title>s5</title>
<polygon fill="none" stroke="orange" stroke-width="2" points="24.5,-318.5 24.5,-364.5 89.5,-364.5 89.5,-318.5 24.5,-318.5"/>
<text text-anchor="middle" x="57" y="-349.3" font-family="sans-serif" font-size="14.00" fill="#ffc4b9">len: 16</text>
<polyline fill="none" stroke="orange" stroke-width="2" points="24.5,-341.5 89.5,-341.5 "/>
<text text-anchor="middle" x="57" y="-326.3" font-family="sans-serif" font-size="14.00" fill="#ffc4b9">ptr: *</text>
</g>
<!-- buffer -->
<g id="node6" class="node">
<title>buffer</title>
<polygon fill="none" stroke="orange" stroke-width="2" points="117,-45.5 117,-81.5 517,-81.5 517,-45.5 117,-45.5"/>
<text text-anchor="middle" x="129.5" y="-59.8" font-family="Courier,monospace" font-weight="bold" font-size="14.00" fill="#ffc4b9">t</text>
<polyline fill="none" stroke="orange" stroke-width="2" points="142,-45.5 142,-81.5 "/>
<text text-anchor="middle" x="154.5" y="-59.8" font-family="Courier,monospace" font-weight="bold" font-size="14.00" fill="#ffc4b9">h</text>
<polyline fill="none" stroke="orange" stroke-width="2" points="167,-45.5 167,-81.5 "/>
<text text-anchor="middle" x="179.5" y="-59.8" font-family="Courier,monospace" font-weight="bold" font-size="14.00" fill="#ffc4b9">e</text>
<polyline fill="none" stroke="orange" stroke-width="2" points="192,-45.5 192,-81.5 "/>
<text text-anchor="middle" x="204.5" y="-59.8" font-family="Courier,monospace" font-weight="bold" font-size="14.00" fill="#ffc4b9"> </text>
<polyline fill="none" stroke="orange" stroke-width="2" points="217,-45.5 217,-81.5 "/>
<text text-anchor="middle" x="229.5" y="-59.8" font-family="Courier,monospace" font-weight="bold" font-size="14.00" fill="#ffc4b9">r</text>
<polyline fill="none" stroke="orange" stroke-width="2" points="242,-45.5 242,-81.5 "/>
<text text-anchor="middle" x="254.5" y="-59.8" font-family="Courier,monospace" font-weight="bold" font-size="14.00" fill="#ffc4b9">u</text>
<polyline fill="none" stroke="orange" stroke-width="2" points="267,-45.5 267,-81.5 "/>
<text text-anchor="middle" x="279.5" y="-59.8" font-family="Courier,monospace" font-weight="bold" font-size="14.00" fill="#ffc4b9">s</text>
<polyline fill="none" stroke="orange" stroke-width="2" points="292,-45.5 292,-81.5 "/>
<text text-anchor="middle" x="304.5" y="-59.8" font-family="Courier,monospace" font-weight="bold" font-size="14.00" fill="#ffc4b9">t</text>
<polyline fill="none" stroke="orange" stroke-width="2" points="317,-45.5 317,-81.5 "/>
<text text-anchor="middle" x="329.5" y="-59.8" font-family="Courier,monospace" font-weight="bold" font-size="14.00" fill="#ffc4b9">o</text>
<polyline fill="none" stroke="orange" stroke-width="2" points="342,-45.5 342,-81.5 "/>
<text text-anchor="middle" x="354.5" y="-59.8" font-family="Courier,monospace" font-weight="bold" font-size="14.00" fill="#ffc4b9">n</text>
<polyline fill="none" stroke="orange" stroke-width="2" points="367,-45.5 367,-81.5 "/>
<text text-anchor="middle" x="379.5" y="-59.8" font-family="Courier,monospace" font-weight="bold" font-size="14.00" fill="#ffc4b9">o</text>
<polyline fill="none" stroke="orange" stroke-width="2" points="392,-45.5 392,-81.5 "/>
<text text-anchor="middle" x="404.5" y="-59.8" font-family="Courier,monospace" font-weight="bold" font-size="14.00" fill="#ffc4b9">m</text>
<polyline fill="none" stroke="orange" stroke-width="2" points="417,-45.5 417,-81.5 "/>
<text text-anchor="middle" x="429.5" y="-59.8" font-family="Courier,monospace" font-weight="bold" font-size="14.00" fill="#ffc4b9">i</text>
<polyline fill="none" stroke="orange" stroke-width="2" points="442,-45.5 442,-81.5 "/>
<text text-anchor="middle" x="454.5" y="-59.8" font-family="Courier,monospace" font-weight="bold" font-size="14.00" fill="#ffc4b9">c</text>
<polyline fill="none" stroke="orange" stroke-width="2" points="467,-45.5 467,-81.5 "/>
<text text-anchor="middle" x="479.5" y="-59.8" font-family="Courier,monospace" font-weight="bold" font-size="14.00" fill="#ffc4b9">o</text>
<polyline fill="none" stroke="orange" stroke-width="2" points="492,-45.5 492,-81.5 "/>
<text text-anchor="middle" x="504.5" y="-59.8" font-family="Courier,monospace" font-weight="bold" font-size="14.00" fill="#ffc4b9">n</text>
</g>
<!-- s5&#45;&gt;buffer -->
<g id="edge5" class="edge">
<title>s5&#45;&gt;buffer:nw</title>
<path fill="none" stroke="#ee7ce4" stroke-width="2" stroke-dasharray="5,2" stroke-opacity="0.317647" d="M55.02,-318.2C52.04,-270.27 51.97,-156.41 110.03,-89.96"/>
<polygon fill="none" stroke="#ee7ce4" stroke-width="2" stroke-opacity="0.317647" points="112.73,-92.2 117,-82.5 107.62,-87.42 112.73,-92.2"/>
</g>
<!-- cell -->
<g id="node7" class="node">
<title>cell</title>
<polygon fill="none" stroke="orange" stroke-width="2" points="260,-156.5 260,-248.5 328,-248.5 328,-156.5 260,-156.5"/>
<text text-anchor="middle" x="294" y="-233.3" font-family="sans-serif" font-size="14.00" fill="#ffc4b9">refs: *</text>
<polyline fill="none" stroke="orange" stroke-width="2" points="260,-225.5 328,-225.5 "/>
<text text-anchor="middle" x="294" y="-210.3" font-family="sans-serif" font-size="14.00" fill="#ffc4b9">len: 16</text>
<polyline fill="none" stroke="orange" stroke-width="2" points="260,-202.5 328,-202.5 "/>
<text text-anchor="middle" x="294" y="-187.3" font-family="sans-serif" font-size="14.00" fill="#ffc4b9">cap: 16</text>
<polyline fill="none" stroke="orange" stroke-width="2" points="260,-179.5 328,-179.5 "/>
<text text-anchor="middle" x="294" y="-164.3" font-family="sans-serif" font-size="14.00" fill="#ffc4b9">ptr: *</text>
</g>
<!-- s5&#45;&gt;cell -->
<g id="edge10" class="edge">
<title>s5:s&#45;&gt;cell:n</title>
<path fill="none" stroke="#ffc4b9" stroke-width="2" d="M57,-317.5C57,-211.5 278.52,-348.92 293.23,-259.08"/>
<polygon fill="#ffc4b9" stroke="#ffc4b9" stroke-width="2" points="296.73,-259.24 294,-249 289.75,-258.71 296.73,-259.24"/>
</g>
<!-- s4 -->
<g id="node2" class="node">
<title>s4</title>
<polygon fill="none" stroke="orange" stroke-width="2" points="143.5,-318.5 143.5,-364.5 208.5,-364.5 208.5,-318.5 143.5,-318.5"/>
<text text-anchor="middle" x="176" y="-349.3" font-family="sans-serif" font-size="14.00" fill="#ffc4b9">len: 12</text>
<polyline fill="none" stroke="orange" stroke-width="2" points="143.5,-341.5 208.5,-341.5 "/>
<text text-anchor="middle" x="176" y="-326.3" font-family="sans-serif" font-size="14.00" fill="#ffc4b9">ptr: *</text>
</g>
<!-- s4&#45;&gt;buffer -->
<g id="edge4" class="edge">
<title>s4&#45;&gt;buffer:nw</title>
<path fill="none" stroke="#ee7ce4" stroke-width="2" stroke-dasharray="5,2" stroke-opacity="0.317647" d="M173.89,-318.41C171.83,-291.12 170.06,-243.39 178,-203.5"/>
<path fill="none" stroke="#ee7ce4" stroke-width="2" stroke-dasharray="5,2" stroke-opacity="0.317647" d="M178,-201.5C188.11,-150.74 179.11,-125.51 209.45,-90.58"/>
<polygon fill="none" stroke="#ee7ce4" stroke-width="2" stroke-opacity="0.317647" points="212.29,-92.66 216.54,-82.96 207.16,-87.89 212.29,-92.66"/>
</g>
<!-- s4&#45;&gt;cell -->
<g id="edge9" class="edge">
<title>s4:s&#45;&gt;cell:n</title>
<path fill="none" stroke="#ffc4b9" stroke-width="2" d="M176,-317.5C176,-260.65 279.71,-303.49 292.67,-259.1"/>
<polygon fill="#ffc4b9" stroke="#ffc4b9" stroke-width="2" points="296.17,-259.37 294,-249 289.23,-258.46 296.17,-259.37"/>
</g>
<!-- s3 -->
<g id="node3" class="node">
<title>s3</title>
<polygon fill="none" stroke="orange" stroke-width="2" points="262.5,-318.5 262.5,-364.5 327.5,-364.5 327.5,-318.5 262.5,-318.5"/>
<text text-anchor="middle" x="295" y="-349.3" font-family="sans-serif" font-size="14.00" fill="#ffc4b9">len: 12</text>
<polyline fill="none" stroke="orange" stroke-width="2" points="262.5,-341.5 327.5,-341.5 "/>
<text text-anchor="middle" x="295" y="-326.3" font-family="sans-serif" font-size="14.00" fill="#ffc4b9">ptr: *</text>
</g>
<!-- s3&#45;&gt;buffer -->
<g id="edge3" class="edge">
<title>s3&#45;&gt;buffer:nw</title>
<path fill="none" stroke="#ee7ce4" stroke-width="2" stroke-dasharray="5,2" stroke-opacity="0.317647" d="M268.43,-318.49C232.25,-287.31 172.52,-231.03 178,-203.5"/>
</g>
<!-- s3&#45;&gt;cell -->
<g id="edge8" class="edge">
<title>s3:s&#45;&gt;cell:n</title>
<path fill="none" stroke="#ffc4b9" stroke-width="2" d="M295,-317.5C295,-290.74 294.23,-281.62 294.04,-259.14"/>
<polygon fill="#ffc4b9" stroke="#ffc4b9" stroke-width="2" points="297.54,-258.99 294,-249 290.54,-259.01 297.54,-258.99"/>
</g>
<!-- s2 -->
<g id="node4" class="node">
<title>s2</title>
<polygon fill="none" stroke="orange" stroke-width="2" points="382,-318.5 382,-364.5 438,-364.5 438,-318.5 382,-318.5"/>
<text text-anchor="middle" x="410" y="-349.3" font-family="sans-serif" font-size="14.00" fill="#ffc4b9">len: 7</text>
<polyline fill="none" stroke="orange" stroke-width="2" points="382,-341.5 438,-341.5 "/>
<text text-anchor="middle" x="410" y="-326.3" font-family="sans-serif" font-size="14.00" fill="#ffc4b9">ptr: *</text>
</g>
<!-- s2&#45;&gt;buffer -->
<g id="edge2" class="edge">
<title>s2&#45;&gt;buffer:nw</title>
<path fill="none" stroke="#ee7ce4" stroke-width="2" stroke-dasharray="5,2" stroke-opacity="0.317647" d="M403.1,-318.47C386.55,-265.21 345.63,-131.04 341.39,-92.6"/>
<polygon fill="none" stroke="#ee7ce4" stroke-width="2" stroke-opacity="0.317647" points="344.89,-92.69 342,-82.5 337.91,-92.27 344.89,-92.69"/>
</g>
<!-- s2&#45;&gt;cell -->
<g id="edge7" class="edge">
<title>s2:s&#45;&gt;cell:n</title>
<path fill="none" stroke="#ffc4b9" stroke-width="2" d="M410,-317.5C410,-261.37 308.05,-302.9 295.3,-258.98"/>
<polygon fill="#ffc4b9" stroke="#ffc4b9" stroke-width="2" points="298.77,-258.46 294,-249 291.82,-259.37 298.77,-258.46"/>
</g>
<!-- s1 -->
<g id="node5" class="node">
<title>s1</title>
<polygon fill="none" stroke="orange" stroke-width="2" points="492,-318.5 492,-364.5 548,-364.5 548,-318.5 492,-318.5"/>
<text text-anchor="middle" x="520" y="-349.3" font-family="sans-serif" font-size="14.00" fill="#ffc4b9">len: 4</text>
<polyline fill="none" stroke="orange" stroke-width="2" points="492,-341.5 548,-341.5 "/>
<text text-anchor="middle" x="520" y="-326.3" font-family="sans-serif" font-size="14.00" fill="#ffc4b9">ptr: *</text>
</g>
<!-- s1&#45;&gt;buffer -->
<g id="edge1" class="edge">
<title>s1&#45;&gt;buffer:nw</title>
<path fill="none" stroke="#ee7ce4" stroke-width="2" stroke-dasharray="5,2" stroke-opacity="0.317647" d="M505.47,-318.43C472,-266.39 393.69,-136.95 411.48,-91.16"/>
<polygon fill="none" stroke="#ee7ce4" stroke-width="2" stroke-opacity="0.317647" points="414.58,-92.81 417,-82.5 408.67,-89.05 414.58,-92.81"/>
</g>
<!-- s1&#45;&gt;cell -->
<g id="edge6" class="edge">
<title>s1:s&#45;&gt;cell:n</title>
<path fill="none" stroke="#ffc4b9" stroke-width="2" d="M520,-317.5C520,-216.23 309.61,-344.32 294.82,-259.18"/>
<polygon fill="#ffc4b9" stroke="#ffc4b9" stroke-width="2" points="298.29,-258.69 294,-249 291.31,-259.25 298.29,-258.69"/>
</g>
<!-- cell&#45;&gt;buffer -->
<g id="edge11" class="edge">
<title>cell:w&#45;&gt;buffer:nw</title>
<path fill="none" stroke="#ffc4b9" stroke-width="2" d="M259,-167.5C243.41,-167.5 142.88,-115.77 120.53,-92.09"/>
<polygon fill="#ffc4b9" stroke="#ffc4b9" stroke-width="2" points="123.74,-90.68 117,-82.5 117.17,-93.09 123.74,-90.68"/>
</g>
<!-- priorities -->
<g id="node8" class="node">
<title>priorities</title>
<polygon fill="none" stroke="orange" points="582,-98.5 582,-119.5 610,-119.5 610,-98.5 582,-98.5"/>
<text text-anchor="start" x="585" y="-105.3" font-family="sans-serif" font-size="14.00" fill="#ffc4b9">len</text>
<polygon fill="none" stroke="orange" points="612,-98.5 612,-119.5 658,-119.5 658,-98.5 612,-98.5"/>
<text text-anchor="start" x="615" y="-105.3" font-family="sans-serif" font-size="14.00" fill="#ffc4b9">count</text>
<polygon fill="none" stroke="orange" points="582,-75.5 582,-96.5 610,-96.5 610,-75.5 582,-75.5"/>
<text text-anchor="start" x="586.5" y="-82.3" font-family="sans-serif" font-size="14.00" fill="#ffc4b9">16</text>
<polygon fill="none" stroke="orange" points="612,-75.5 612,-96.5 658,-96.5 658,-75.5 612,-75.5"/>
<text text-anchor="start" x="630" y="-82.3" font-family="sans-serif" font-size="14.00" fill="#ffc4b9">1</text>
<polygon fill="none" stroke="orange" points="582,-52.5 582,-73.5 610,-73.5 610,-52.5 582,-52.5"/>
<text text-anchor="start" x="586.5" y="-59.3" font-family="sans-serif" font-size="14.00" fill="#ffc4b9">12</text>
<polygon fill="none" stroke="orange" points="612,-52.5 612,-73.5 658,-73.5 658,-52.5 612,-52.5"/>
<text text-anchor="start" x="630" y="-59.3" font-family="sans-serif" font-size="14.00" fill="#ffc4b9">2</text>
<polygon fill="none" stroke="orange" points="582,-29.5 582,-50.5 610,-50.5 610,-29.5 582,-29.5"/>
<text text-anchor="start" x="591" y="-36.3" font-family="sans-serif" font-size="14.00" fill="#ffc4b9">7</text>
<polygon fill="none" stroke="orange" points="612,-29.5 612,-50.5 658,-50.5 658,-29.5 612,-29.5"/>
<text text-anchor="start" x="630" y="-36.3" font-family="sans-serif" font-size="14.00" fill="#ffc4b9">1</text>
<polygon fill="none" stroke="orange" points="582,-6.5 582,-27.5 610,-27.5 610,-6.5 582,-6.5"/>
<text text-anchor="start" x="591" y="-13.3" font-family="sans-serif" font-size="14.00" fill="#ffc4b9">4</text>
<polygon fill="none" stroke="orange" points="612,-6.5 612,-27.5 658,-27.5 658,-6.5 612,-6.5"/>
<text text-anchor="start" x="630" y="-13.3" font-family="sans-serif" font-size="14.00" fill="#ffc4b9">1</text>
<polygon fill="none" stroke="orange" points="579,-4 579,-123 661,-123 661,-4 579,-4"/>
</g>
<!-- cell&#45;&gt;priorities -->
<g id="edge12" class="edge">
<title>cell:priorities&#45;&gt;priorities</title>
<path fill="none" stroke="#ffc4b9" stroke-width="2" d="M329,-237.5C420.5,-237.5 508.33,-173.52 563.11,-123.38"/>
<polygon fill="#ffc4b9" stroke="#ffc4b9" stroke-width="2" points="565.68,-125.78 570.62,-116.41 560.91,-120.65 565.68,-125.78"/>
</g>
</g>
</svg>
