<?xml version="1.0" encoding="UTF-8" standalone="no"?>
<!DOCTYPE svg PUBLIC "-//W3C//DTD SVG 1.1//EN"
 "http://www.w3.org/Graphics/SVG/1.1/DTD/svg11.dtd">
<!-- Generated by graphviz version 2.43.0 (0)
 -->
<!-- Title: structs Pages: 1 -->
<svg width="920pt" height="370pt"
 viewBox="0.00 0.00 920.00 370.00" xmlns="http://www.w3.org/2000/svg" xmlns:xlink="http://www.w3.org/1999/xlink">
<g id="graph0" class="graph" transform="scale(1 1) rotate(0) translate(18 352)">
<title>structs</title>
<polygon fill="#1f1a30" stroke="transparent" points="-18,18 -18,-352 902,-352 902,18 -18,18"/>
<g id="clust2" class="cluster">
<title>cluster_s2</title>
<polygon fill="#1f1a30" stroke="transparent" points="199,-241 199,-326 271,-326 271,-241 199,-241"/>
<text text-anchor="middle" x="233.5" y="-311.6" font-family="Courier,monospace" font-weight="bold" font-size="13.00" fill="#ffc4b9">nomicon</text>
</g>
<g id="clust3" class="cluster">
<title>cluster_s1</title>
<polygon fill="#1f1a30" stroke="transparent" points="367,-241 367,-326 439,-326 439,-241 367,-241"/>
<text text-anchor="middle" x="390.5" y="-311.6" font-family="Courier,monospace" font-weight="bold" font-size="13.00" fill="#ffc4b9">icon</text>
</g>
<g id="clust4" class="cluster">
<title>cluster_janelle</title>
<polygon fill="#1f1a30" stroke="transparent" points="626,-241 626,-326 698,-326 698,-241 626,-241"/>
<text text-anchor="middle" x="660.5" y="-311.6" font-family="Courier,monospace" font-weight="bold" font-size="13.00" fill="#ffc4b9">janelle</text>
</g>
<!-- s2 -->
<g id="node1" class="node">
<title>s2</title>
<polygon fill="none" stroke="orange" stroke-width="2" points="207,-249.5 207,-295.5 263,-295.5 263,-249.5 207,-249.5"/>
<text text-anchor="middle" x="235" y="-280.3" font-family="sans-serif" font-size="14.00" fill="#ffc4b9">len: 7</text>
<polyline fill="none" stroke="orange" stroke-width="2" points="207,-272.5 263,-272.5 "/>
<text text-anchor="middle" x="235" y="-257.3" font-family="sans-serif" font-size="14.00" fill="#ffc4b9">ptr: *</text>
</g>
<!-- buffer -->
<g id="node4" class="node">
<title>buffer</title>
<polygon fill="none" stroke="orange" stroke-width="2" points="152,-22.5 152,-58.5 552,-58.5 552,-22.5 152,-22.5"/>
<text text-anchor="middle" x="164.5" y="-36.8" font-family="Courier,monospace" font-weight="bold" font-size="14.00" fill="#ffc4b9">_</text>
<polyline fill="none" stroke="orange" stroke-width="2" points="177,-22.5 177,-58.5 "/>
<text text-anchor="middle" x="189.5" y="-36.8" font-family="Courier,monospace" font-weight="bold" font-size="14.00" fill="#ffc4b9">_</text>
<polyline fill="none" stroke="orange" stroke-width="2" points="202,-22.5 202,-58.5 "/>
<text text-anchor="middle" x="214.5" y="-36.8" font-family="Courier,monospace" font-weight="bold" font-size="14.00" fill="#ffc4b9">_</text>
<polyline fill="none" stroke="orange" stroke-width="2" points="227,-22.5 227,-58.5 "/>
<text text-anchor="middle" x="239.5" y="-36.8" font-family="Courier,monospace" font-weight="bold" font-size="14.00" fill="#ffc4b9">_</text>
<polyline fill="none" stroke="orange" stroke-width="2" points="252,-22.5 252,-58.5 "/>
<text text-anchor="middle" x="264.5" y="-36.8" font-family="Courier,monospace" font-weight="bold" font-size="14.00" fill="#ffc4b9">_</text>
<polyline fill="none" stroke="orange" stroke-width="2" points="277,-22.5 277,-58.5 "/>
<text text-anchor="middle" x="289.5" y="-36.8" font-family="Courier,monospace" font-weight="bold" font-size="14.00" fill="#ffc4b9">_</text>
<polyline fill="none" stroke="orange" stroke-width="2" points="302,-22.5 302,-58.5 "/>
<text text-anchor="middle" x="314.5" y="-36.8" font-family="Courier,monospace" font-weight="bold" font-size="14.00" fill="#ffc4b9">_</text>
<polyline fill="none" stroke="orange" stroke-width="2" points="327,-22.5 327,-58.5 "/>
<text text-anchor="middle" x="339.5" y="-36.8" font-family="Courier,monospace" font-weight="bold" font-size="14.00" fill="#ffc4b9">_</text>
<polyline fill="none" stroke="orange" stroke-width="2" points="352,-22.5 352,-58.5 "/>
<text text-anchor="middle" x="364.5" y="-36.8" font-family="Courier,monospace" font-weight="bold" font-size="14.00" fill="#ffc4b9">_</text>
<polyline fill="none" stroke="orange" stroke-width="2" points="377,-22.5 377,-58.5 "/>
<text text-anchor="middle" x="389.5" y="-36.8" font-family="Courier,monospace" font-weight="bold" font-size="14.00" fill="#ffc4b9">n</text>
<polyline fill="none" stroke="orange" stroke-width="2" points="402,-22.5 402,-58.5 "/>
<text text-anchor="middle" x="414.5" y="-36.8" font-family="Courier,monospace" font-weight="bold" font-size="14.00" fill="#ffc4b9">o</text>
<polyline fill="none" stroke="orange" stroke-width="2" points="427,-22.5 427,-58.5 "/>
<text text-anchor="middle" x="439.5" y="-36.8" font-family="Courier,monospace" font-weight="bold" font-size="14.00" fill="#ffc4b9">m</text>
<polyline fill="none" stroke="orange" stroke-width="2" points="452,-22.5 452,-58.5 "/>
<text text-anchor="middle" x="464.5" y="-36.8" font-family="Courier,monospace" font-weight="bold" font-size="14.00" fill="#ffc4b9">i</text>
<polyline fill="none" stroke="orange" stroke-width="2" points="477,-22.5 477,-58.5 "/>
<text text-anchor="middle" x="489.5" y="-36.8" font-family="Courier,monospace" font-weight="bold" font-size="14.00" fill="#ffc4b9">c</text>
<polyline fill="none" stroke="orange" stroke-width="2" points="502,-22.5 502,-58.5 "/>
<text text-anchor="middle" x="514.5" y="-36.8" font-family="Courier,monospace" font-weight="bold" font-size="14.00" fill="#ffc4b9">o</text>
<polyline fill="none" stroke="orange" stroke-width="2" points="527,-22.5 527,-58.5 "/>
<text text-anchor="middle" x="539.5" y="-36.8" font-family="Courier,monospace" font-weight="bold" font-size="14.00" fill="#ffc4b9">n</text>
</g>
<!-- s2&#45;&gt;buffer -->
<g id="edge2" class="edge">
<title>s2&#45;&gt;buffer:nw</title>
<path fill="none" stroke="#ee7ce4" stroke-width="2" stroke-dasharray="5,2" stroke-opacity="0.317647" d="M246.08,-249.33C266.44,-210.04 312.99,-126.7 369.67,-67.02"/>
<polygon fill="none" stroke="#ee7ce4" stroke-width="2" stroke-opacity="0.317647" points="372.53,-69.11 377,-59.5 367.51,-64.22 372.53,-69.11"/>
</g>
<!-- cell -->
<g id="node6" class="node">
<title>cell</title>
<polygon fill="none" stroke="orange" stroke-width="2" points="157,-110.5 157,-202.5 225,-202.5 225,-110.5 157,-110.5"/>
<text text-anchor="middle" x="191" y="-187.3" font-family="sans-serif" font-size="14.00" fill="#ffc4b9">refs: *</text>
<polyline fill="none" stroke="orange" stroke-width="2" points="157,-179.5 225,-179.5 "/>
<text text-anchor="middle" x="191" y="-164.3" font-family="sans-serif" font-size="14.00" fill="#ffc4b9">len: 7</text>
<polyline fill="none" stroke="orange" stroke-width="2" points="157,-156.5 225,-156.5 "/>
<text text-anchor="middle" x="191" y="-141.3" font-family="sans-serif" font-size="14.00" fill="#ffc4b9">cap: 16</text>
<polyline fill="none" stroke="orange" stroke-width="2" points="157,-133.5 225,-133.5 "/>
<text text-anchor="middle" x="191" y="-118.3" font-family="sans-serif" font-size="14.00" fill="#ffc4b9">ptr: *</text>
</g>
<!-- s2&#45;&gt;cell -->
<g id="edge5" class="edge">
<title>s2:s&#45;&gt;cell:n</title>
<path fill="none" stroke="#ffc4b9" stroke-width="2" d="M235,-248.5C235,-224.32 202.5,-228.87 193.37,-212.78"/>
<polygon fill="#ffc4b9" stroke="#ffc4b9" stroke-width="2" points="196.75,-211.9 191,-203 189.95,-213.54 196.75,-211.9"/>
</g>
<!-- s1 -->
<g id="node2" class="node">
<title>s1</title>
<polygon fill="none" stroke="orange" stroke-width="2" points="375,-249.5 375,-295.5 431,-295.5 431,-249.5 375,-249.5"/>
<text text-anchor="middle" x="403" y="-280.3" font-family="sans-serif" font-size="14.00" fill="#ffc4b9">len: 4</text>
<polyline fill="none" stroke="orange" stroke-width="2" points="375,-272.5 431,-272.5 "/>
<text text-anchor="middle" x="403" y="-257.3" font-family="sans-serif" font-size="14.00" fill="#ffc4b9">ptr: *</text>
</g>
<!-- s1&#45;&gt;buffer -->
<g id="edge1" class="edge">
<title>s1&#45;&gt;buffer:nw</title>
<path fill="none" stroke="#ee7ce4" stroke-width="2" stroke-dasharray="5,2" stroke-opacity="0.317647" d="M401.11,-249.34C398.87,-208.36 400.05,-120.11 445.04,-67.06"/>
<polygon fill="none" stroke="#ee7ce4" stroke-width="2" stroke-opacity="0.317647" points="447.8,-69.23 452,-59.5 442.65,-64.49 447.8,-69.23"/>
</g>
<!-- s1&#45;&gt;cell -->
<g id="edge4" class="edge">
<title>s1:s&#45;&gt;cell:n</title>
<path fill="none" stroke="#ffc4b9" stroke-width="2" d="M403,-248.5C403,-155.9 207.24,-288.24 191.95,-213.21"/>
<polygon fill="#ffc4b9" stroke="#ffc4b9" stroke-width="2" points="195.41,-212.63 191,-203 188.44,-213.28 195.41,-212.63"/>
</g>
<!-- bicon -->
<g id="node3" class="node">
<title>bicon</title>
<polygon fill="none" stroke="orange" stroke-width="2" points="634,-249.5 634,-295.5 690,-295.5 690,-249.5 634,-249.5"/>
<text text-anchor="middle" x="662" y="-280.3" font-family="sans-serif" font-size="14.00" fill="#ffc4b9">len: 5</text>
<polyline fill="none" stroke="orange" stroke-width="2" points="634,-272.5 690,-272.5 "/>
<text text-anchor="middle" x="662" y="-257.3" font-family="sans-serif" font-size="14.00" fill="#ffc4b9">ptr: *</text>
</g>
<!-- buffer2 -->
<g id="node5" class="node">
<title>buffer2</title>
<polygon fill="none" stroke="orange" stroke-width="2" points="606.5,-22.5 606.5,-58.5 731.5,-58.5 731.5,-22.5 606.5,-22.5"/>
<text text-anchor="middle" x="619" y="-36.8" font-family="Courier,monospace" font-weight="bold" font-size="14.00" fill="#ffc4b9">b</text>
<polyline fill="none" stroke="orange" stroke-width="2" points="631.5,-22.5 631.5,-58.5 "/>
<text text-anchor="middle" x="644" y="-36.8" font-family="Courier,monospace" font-weight="bold" font-size="14.00" fill="#ffc4b9">i</text>
<polyline fill="none" stroke="orange" stroke-width="2" points="656.5,-22.5 656.5,-58.5 "/>
<text text-anchor="middle" x="669" y="-36.8" font-family="Courier,monospace" font-weight="bold" font-size="14.00" fill="#ffc4b9">c</text>
<polyline fill="none" stroke="orange" stroke-width="2" points="681.5,-22.5 681.5,-58.5 "/>
<text text-anchor="middle" x="694" y="-36.8" font-family="Courier,monospace" font-weight="bold" font-size="14.00" fill="#ffc4b9">o</text>
<polyline fill="none" stroke="orange" stroke-width="2" points="706.5,-22.5 706.5,-58.5 "/>
<text text-anchor="middle" x="719" y="-36.8" font-family="Courier,monospace" font-weight="bold" font-size="14.00" fill="#ffc4b9">n</text>
</g>
<!-- bicon&#45;&gt;buffer2 -->
<g id="edge3" class="edge">
<title>bicon&#45;&gt;buffer2:nw</title>
<path fill="none" stroke="#ee7ce4" stroke-width="2" stroke-dasharray="5,2" stroke-opacity="0.317647" d="M644.55,-249.41C614.35,-208.55 559.26,-120.5 599.38,-67.11"/>
<polygon fill="none" stroke="#ee7ce4" stroke-width="2" stroke-opacity="0.317647" points="602.08,-69.34 606,-59.5 596.8,-64.75 602.08,-69.34"/>
</g>
<!-- cell2 -->
<g id="node7" class="node">
<title>cell2</title>
<polygon fill="none" stroke="orange" stroke-width="2" points="688.5,-110.5 688.5,-202.5 747.5,-202.5 747.5,-110.5 688.5,-110.5"/>
<text text-anchor="middle" x="718" y="-187.3" font-family="sans-serif" font-size="14.00" fill="#ffc4b9">refs: *</text>
<polyline fill="none" stroke="orange" stroke-width="2" points="688.5,-179.5 747.5,-179.5 "/>
<text text-anchor="middle" x="718" y="-164.3" font-family="sans-serif" font-size="14.00" fill="#ffc4b9">len: 5</text>
<polyline fill="none" stroke="orange" stroke-width="2" points="688.5,-156.5 747.5,-156.5 "/>
<text text-anchor="middle" x="718" y="-141.3" font-family="sans-serif" font-size="14.00" fill="#ffc4b9">cap: 5</text>
<polyline fill="none" stroke="orange" stroke-width="2" points="688.5,-133.5 747.5,-133.5 "/>
<text text-anchor="middle" x="718" y="-118.3" font-family="sans-serif" font-size="14.00" fill="#ffc4b9">ptr: *</text>
</g>
<!-- bicon&#45;&gt;cell2 -->
<g id="edge6" class="edge">
<title>bicon:s&#45;&gt;cell2:n</title>
<path fill="none" stroke="#ffc4b9" stroke-width="2" d="M662,-248.5C662,-220.44 704.88,-231.2 715.59,-212.85"/>
<polygon fill="#ffc4b9" stroke="#ffc4b9" stroke-width="2" points="719.03,-213.55 718,-203 712.23,-211.88 719.03,-213.55"/>
</g>
<!-- cell&#45;&gt;buffer -->
<g id="edge7" class="edge">
<title>cell:w&#45;&gt;buffer:nw</title>
<path fill="none" stroke="#ffc4b9" stroke-width="2" d="M156,-121.5C131.73,-121.5 131.95,-88.69 145.61,-67.49"/>
<polygon fill="#ffc4b9" stroke="#ffc4b9" stroke-width="2" points="148.49,-69.5 152,-59.5 143.02,-65.13 148.49,-69.5"/>
</g>
<!-- priorities -->
<g id="node8" class="node">
<title>priorities</title>
<polygon fill="none" stroke="orange" points="11,-52.5 11,-73.5 39,-73.5 39,-52.5 11,-52.5"/>
<text text-anchor="start" x="14" y="-59.3" font-family="sans-serif" font-size="14.00" fill="#ffc4b9">len</text>
<polygon fill="none" stroke="orange" points="41,-52.5 41,-73.5 87,-73.5 87,-52.5 41,-52.5"/>
<text text-anchor="start" x="44" y="-59.3" font-family="sans-serif" font-size="14.00" fill="#ffc4b9">count</text>
<polygon fill="none" stroke="orange" points="11,-29.5 11,-50.5 39,-50.5 39,-29.5 11,-29.5"/>
<text text-anchor="start" x="20" y="-36.3" font-family="sans-serif" font-size="14.00" fill="#ffc4b9">7</text>
<polygon fill="none" stroke="orange" points="41,-29.5 41,-50.5 87,-50.5 87,-29.5 41,-29.5"/>
<text text-anchor="start" x="59" y="-36.3" font-family="sans-serif" font-size="14.00" fill="#ffc4b9">1</text>
<polygon fill="none" stroke="orange" points="11,-6.5 11,-27.5 39,-27.5 39,-6.5 11,-6.5"/>
<text text-anchor="start" x="20" y="-13.3" font-family="sans-serif" font-size="14.00" fill="#ffc4b9">4</text>
<polygon fill="none" stroke="orange" points="41,-6.5 41,-27.5 87,-27.5 87,-6.5 41,-6.5"/>
<text text-anchor="start" x="59" y="-13.3" font-family="sans-serif" font-size="14.00" fill="#ffc4b9">1</text>
<polygon fill="none" stroke="orange" points="8,-4 8,-77 90,-77 90,-4 8,-4"/>
</g>
<!-- cell&#45;&gt;priorities -->
<g id="edge8" class="edge">
<title>cell:priorities&#45;&gt;priorities</title>
<path fill="none" stroke="#ffc4b9" stroke-width="2" d="M156,-191.5C105.59,-191.5 76.7,-134.66 61.93,-90.96"/>
<polygon fill="#ffc4b9" stroke="#ffc4b9" stroke-width="2" points="65.22,-89.75 58.82,-81.3 58.56,-91.89 65.22,-89.75"/>
</g>
<!-- cell2&#45;&gt;buffer2 -->
<g id="edge9" class="edge">
<title>cell2:w&#45;&gt;buffer2:nw</title>
<path fill="none" stroke="#ffc4b9" stroke-width="2" d="M687,-121.5C668.05,-121.5 612.98,-89.38 604.78,-69.47"/>
<polygon fill="#ffc4b9" stroke="#ffc4b9" stroke-width="2" points="608.26,-69.85 606,-59.5 601.31,-69 608.26,-69.85"/>
</g>
<!-- priorities2 -->
<g id="node9" class="node">
<title>priorities2</title>
<polygon fill="none" stroke="orange" points="797,-41.5 797,-62.5 825,-62.5 825,-41.5 797,-41.5"/>
<text text-anchor="start" x="800" y="-48.3" font-family="sans-serif" font-size="14.00" fill="#ffc4b9">len</text>
<polygon fill="none" stroke="orange" points="827,-41.5 827,-62.5 873,-62.5 873,-41.5 827,-41.5"/>
<text text-anchor="start" x="830" y="-48.3" font-family="sans-serif" font-size="14.00" fill="#ffc4b9">count</text>
<polygon fill="none" stroke="orange" points="797,-18.5 797,-39.5 825,-39.5 825,-18.5 797,-18.5"/>
<text text-anchor="start" x="806" y="-25.3" font-family="sans-serif" font-size="14.00" fill="#ffc4b9">5</text>
<polygon fill="none" stroke="orange" points="827,-18.5 827,-39.5 873,-39.5 873,-18.5 827,-18.5"/>
<text text-anchor="start" x="845" y="-25.3" font-family="sans-serif" font-size="14.00" fill="#ffc4b9">1</text>
<polygon fill="none" stroke="orange" points="794,-15.5 794,-65.5 876,-65.5 876,-15.5 794,-15.5"/>
</g>
<!-- cell2&#45;&gt;priorities2 -->
<g id="edge10" class="edge">
<title>cell2:priorities&#45;&gt;priorities2</title>
<path fill="none" stroke="#ffc4b9" stroke-width="2" d="M749,-191.5C800.52,-191.5 821.61,-124.08 829.92,-79.64"/>
<polygon fill="#ffc4b9" stroke="#ffc4b9" stroke-width="2" points="833.38,-80.16 831.64,-69.71 826.49,-78.97 833.38,-80.16"/>
</g>
</g>
</svg>
