<?xml version="1.0" encoding="UTF-8" standalone="no"?>
<!DOCTYPE svg PUBLIC "-//W3C//DTD SVG 1.1//EN"
 "http://www.w3.org/Graphics/SVG/1.1/DTD/svg11.dtd">
<!-- Generated by graphviz version 2.43.0 (0)
 -->
<!-- Title: structs Pages: 1 -->
<svg width="658pt" height="413pt"
 viewBox="0.00 0.00 658.00 412.50" xmlns="http://www.w3.org/2000/svg" xmlns:xlink="http://www.w3.org/1999/xlink">
<g id="graph0" class="graph" transform="scale(1 1) rotate(0) translate(18 394.5)">
<title>structs</title>
<polygon fill="#1f1a30" stroke="transparent" points="-18,18 -18,-394.5 640,-394.5 640,18 -18,18"/>
<g id="clust1" class="cluster">
<title>cluster_stack</title>
<polygon fill="#1f1a30" stroke="transparent" points="8,-267.5 8,-368.5 448,-368.5 448,-267.5 8,-267.5"/>
</g>
<g id="clust2" class="cluster">
<title>cluster_s4</title>
<polygon fill="#1f1a30" stroke="transparent" points="16,-275.5 16,-360.5 130,-360.5 130,-275.5 16,-275.5"/>
<text text-anchor="middle" x="73" y="-346.1" font-family="Courier,monospace" font-weight="bold" font-size="13.00" fill="#ffc4b9">rustonomicon2</text>
</g>
<g id="clust3" class="cluster">
<title>cluster_s3</title>
<polygon fill="#1f1a30" stroke="transparent" points="138,-275.5 138,-360.5 245,-360.5 245,-275.5 138,-275.5"/>
<text text-anchor="middle" x="191.5" y="-346.1" font-family="Courier,monospace" font-weight="bold" font-size="13.00" fill="#ffc4b9">rustonomicon</text>
</g>
<g id="clust4" class="cluster">
<title>cluster_s2</title>
<polygon fill="#1f1a30" stroke="transparent" points="258,-275.5 258,-360.5 330,-360.5 330,-275.5 258,-275.5"/>
<text text-anchor="middle" x="292.5" y="-346.1" font-family="Courier,monospace" font-weight="bold" font-size="13.00" fill="#ffc4b9">nomicon</text>
</g>
<g id="clust5" class="cluster">
<title>cluster_s1</title>
<polygon fill="#1f1a30" stroke="transparent" points="368,-275.5 368,-360.5 440,-360.5 440,-275.5 368,-275.5"/>
<text text-anchor="middle" x="391.5" y="-346.1" font-family="Courier,monospace" font-weight="bold" font-size="13.00" fill="#ffc4b9">icon</text>
</g>
<g id="clust6" class="cluster">
<title>cluster_phantom_edges</title>
<polygon fill="#1f1a30" stroke="transparent" points="62,-25.5 62,-78.5 478,-78.5 478,-25.5 62,-25.5"/>
</g>
<!-- s4 -->
<g id="node1" class="node">
<title>s4</title>
<polygon fill="none" stroke="orange" stroke-width="2" points="27.5,-284 27.5,-330 92.5,-330 92.5,-284 27.5,-284"/>
<text text-anchor="middle" x="60" y="-314.8" font-family="sans-serif" font-size="14.00" fill="#ffc4b9">len: 12</text>
<polyline fill="none" stroke="orange" stroke-width="2" points="27.5,-307 92.5,-307 "/>
<text text-anchor="middle" x="60" y="-291.8" font-family="sans-serif" font-size="14.00" fill="#ffc4b9">ptr: *</text>
</g>
<!-- buffer -->
<g id="node5" class="node">
<title>buffer</title>
<polygon fill="none" stroke="orange" stroke-width="2" points="70,-34 70,-70 470,-70 470,-34 70,-34"/>
<text text-anchor="middle" x="82.5" y="-48.3" font-family="Courier,monospace" font-weight="bold" font-size="14.00" fill="#ffc4b9">_</text>
<polyline fill="none" stroke="orange" stroke-width="2" points="95,-34 95,-70 "/>
<text text-anchor="middle" x="107.5" y="-48.3" font-family="Courier,monospace" font-weight="bold" font-size="14.00" fill="#ffc4b9">_</text>
<polyline fill="none" stroke="orange" stroke-width="2" points="120,-34 120,-70 "/>
<text text-anchor="middle" x="132.5" y="-48.3" font-family="Courier,monospace" font-weight="bold" font-size="14.00" fill="#ffc4b9">_</text>
<polyline fill="none" stroke="orange" stroke-width="2" points="145,-34 145,-70 "/>
<text text-anchor="middle" x="157.5" y="-48.3" font-family="Courier,monospace" font-weight="bold" font-size="14.00" fill="#ffc4b9">_</text>
<polyline fill="none" stroke="orange" stroke-width="2" points="170,-34 170,-70 "/>
<text text-anchor="middle" x="182.5" y="-48.3" font-family="Courier,monospace" font-weight="bold" font-size="14.00" fill="#ffc4b9">r</text>
<polyline fill="none" stroke="orange" stroke-width="2" points="195,-34 195,-70 "/>
<text text-anchor="middle" x="207.5" y="-48.3" font-family="Courier,monospace" font-weight="bold" font-size="14.00" fill="#ffc4b9">u</text>
<polyline fill="none" stroke="orange" stroke-width="2" points="220,-34 220,-70 "/>
<text text-anchor="middle" x="232.5" y="-48.3" font-family="Courier,monospace" font-weight="bold" font-size="14.00" fill="#ffc4b9">s</text>
<polyline fill="none" stroke="orange" stroke-width="2" points="245,-34 245,-70 "/>
<text text-anchor="middle" x="257.5" y="-48.3" font-family="Courier,monospace" font-weight="bold" font-size="14.00" fill="#ffc4b9">t</text>
<polyline fill="none" stroke="orange" stroke-width="2" points="270,-34 270,-70 "/>
<text text-anchor="middle" x="282.5" y="-48.3" font-family="Courier,monospace" font-weight="bold" font-size="14.00" fill="#ffc4b9">o</text>
<polyline fill="none" stroke="orange" stroke-width="2" points="295,-34 295,-70 "/>
<text text-anchor="middle" x="307.5" y="-48.3" font-family="Courier,monospace" font-weight="bold" font-size="14.00" fill="#ffc4b9">n</text>
<polyline fill="none" stroke="orange" stroke-width="2" points="320,-34 320,-70 "/>
<text text-anchor="middle" x="332.5" y="-48.3" font-family="Courier,monospace" font-weight="bold" font-size="14.00" fill="#ffc4b9">o</text>
<polyline fill="none" stroke="orange" stroke-width="2" points="345,-34 345,-70 "/>
<text text-anchor="middle" x="357.5" y="-48.3" font-family="Courier,monospace" font-weight="bold" font-size="14.00" fill="#ffc4b9">m</text>
<polyline fill="none" stroke="orange" stroke-width="2" points="370,-34 370,-70 "/>
<text text-anchor="middle" x="382.5" y="-48.3" font-family="Courier,monospace" font-weight="bold" font-size="14.00" fill="#ffc4b9">i</text>
<polyline fill="none" stroke="orange" stroke-width="2" points="395,-34 395,-70 "/>
<text text-anchor="middle" x="407.5" y="-48.3" font-family="Courier,monospace" font-weight="bold" font-size="14.00" fill="#ffc4b9">c</text>
<polyline fill="none" stroke="orange" stroke-width="2" points="420,-34 420,-70 "/>
<text text-anchor="middle" x="432.5" y="-48.3" font-family="Courier,monospace" font-weight="bold" font-size="14.00" fill="#ffc4b9">o</text>
<polyline fill="none" stroke="orange" stroke-width="2" points="445,-34 445,-70 "/>
<text text-anchor="middle" x="457.5" y="-48.3" font-family="Courier,monospace" font-weight="bold" font-size="14.00" fill="#ffc4b9">n</text>
</g>
<!-- s4&#45;&gt;buffer -->
<g id="edge4" class="edge">
<title>s4&#45;&gt;buffer:nw</title>
<path fill="none" stroke="#ee7ce4" stroke-width="2" stroke-dasharray="5,2" stroke-opacity="0.317647" d="M56.93,-283.65C54.23,-258.08 52.22,-215.26 63,-180.5"/>
<path fill="none" stroke="#ee7ce4" stroke-width="2" stroke-dasharray="5,2" stroke-opacity="0.317647" d="M63,-178.5C81.88,-117.63 118.09,-118.38 162.27,-78.36"/>
<polygon fill="none" stroke="#ee7ce4" stroke-width="2" stroke-opacity="0.317647" points="164.88,-80.7 169.72,-71.28 160.06,-75.63 164.88,-80.7"/>
</g>
<!-- cell -->
<g id="node6" class="node">
<title>cell</title>
<polygon fill="none" stroke="orange" stroke-width="2" points="145,-133.5 145,-225.5 213,-225.5 213,-133.5 145,-133.5"/>
<text text-anchor="middle" x="179" y="-210.3" font-family="sans-serif" font-size="14.00" fill="#ffc4b9">refs: *</text>
<polyline fill="none" stroke="orange" stroke-width="2" points="145,-202.5 213,-202.5 "/>
<text text-anchor="middle" x="179" y="-187.3" font-family="sans-serif" font-size="14.00" fill="#ffc4b9">len: 12</text>
<polyline fill="none" stroke="orange" stroke-width="2" points="145,-179.5 213,-179.5 "/>
<text text-anchor="middle" x="179" y="-164.3" font-family="sans-serif" font-size="14.00" fill="#ffc4b9">cap: 16</text>
<polyline fill="none" stroke="orange" stroke-width="2" points="145,-156.5 213,-156.5 "/>
<text text-anchor="middle" x="179" y="-141.3" font-family="sans-serif" font-size="14.00" fill="#ffc4b9">ptr: *</text>
</g>
<!-- s4&#45;&gt;cell -->
<g id="edge8" class="edge">
<title>s4:s&#45;&gt;cell:n</title>
<path fill="none" stroke="#ffc4b9" stroke-width="2" d="M60,-283C60,-228.14 164.15,-277.37 177.58,-235.92"/>
<polygon fill="#ffc4b9" stroke="#ffc4b9" stroke-width="2" points="181.05,-236.39 179,-226 174.12,-235.4 181.05,-236.39"/>
</g>
<!-- s3 -->
<g id="node2" class="node">
<title>s3</title>
<polygon fill="none" stroke="orange" stroke-width="2" points="146.5,-284 146.5,-330 211.5,-330 211.5,-284 146.5,-284"/>
<text text-anchor="middle" x="179" y="-314.8" font-family="sans-serif" font-size="14.00" fill="#ffc4b9">len: 12</text>
<polyline fill="none" stroke="orange" stroke-width="2" points="146.5,-307 211.5,-307 "/>
<text text-anchor="middle" x="179" y="-291.8" font-family="sans-serif" font-size="14.00" fill="#ffc4b9">ptr: *</text>
</g>
<!-- s3&#45;&gt;buffer -->
<g id="edge3" class="edge">
<title>s3&#45;&gt;buffer:nw</title>
<path fill="none" stroke="#ee7ce4" stroke-width="2" stroke-dasharray="5,2" stroke-opacity="0.317647" d="M158.15,-283.92C124.62,-248.36 62.49,-182.16 63,-180.5"/>
</g>
<!-- s3&#45;&gt;cell -->
<g id="edge7" class="edge">
<title>s3:s&#45;&gt;cell:n</title>
<path fill="none" stroke="#ffc4b9" stroke-width="2" d="M179,-283C179,-261.43 179,-253.63 179,-236.15"/>
<polygon fill="#ffc4b9" stroke="#ffc4b9" stroke-width="2" points="182.5,-236 179,-226 175.5,-236 182.5,-236"/>
</g>
<!-- s2 -->
<g id="node3" class="node">
<title>s2</title>
<polygon fill="none" stroke="orange" stroke-width="2" points="266,-284 266,-330 322,-330 322,-284 266,-284"/>
<text text-anchor="middle" x="294" y="-314.8" font-family="sans-serif" font-size="14.00" fill="#ffc4b9">len: 7</text>
<polyline fill="none" stroke="orange" stroke-width="2" points="266,-307 322,-307 "/>
<text text-anchor="middle" x="294" y="-291.8" font-family="sans-serif" font-size="14.00" fill="#ffc4b9">ptr: *</text>
</g>
<!-- s2&#45;&gt;buffer -->
<g id="edge2" class="edge">
<title>s2&#45;&gt;buffer:nw</title>
<path fill="none" stroke="#ee7ce4" stroke-width="2" stroke-dasharray="5,2" stroke-opacity="0.317647" d="M285.21,-283.72C269.09,-238.92 240.61,-137.22 288.13,-78.62"/>
<polygon fill="none" stroke="#ee7ce4" stroke-width="2" stroke-opacity="0.317647" points="290.91,-80.77 295,-71 285.71,-76.09 290.91,-80.77"/>
</g>
<!-- s2&#45;&gt;cell -->
<g id="edge6" class="edge">
<title>s2:s&#45;&gt;cell:n</title>
<path fill="none" stroke="#ffc4b9" stroke-width="2" d="M294,-283C294,-229.74 193.77,-275.97 180.45,-235.92"/>
<polygon fill="#ffc4b9" stroke="#ffc4b9" stroke-width="2" points="183.91,-235.39 179,-226 176.99,-236.4 183.91,-235.39"/>
</g>
<!-- s1 -->
<g id="node4" class="node">
<title>s1</title>
<polygon fill="none" stroke="orange" stroke-width="2" points="376,-284 376,-330 432,-330 432,-284 376,-284"/>
<text text-anchor="middle" x="404" y="-314.8" font-family="sans-serif" font-size="14.00" fill="#ffc4b9">len: 4</text>
<polyline fill="none" stroke="orange" stroke-width="2" points="376,-307 432,-307 "/>
<text text-anchor="middle" x="404" y="-291.8" font-family="sans-serif" font-size="14.00" fill="#ffc4b9">ptr: *</text>
</g>
<!-- s1&#45;&gt;buffer -->
<g id="edge1" class="edge">
<title>s1&#45;&gt;buffer:nw</title>
<path fill="none" stroke="#ee7ce4" stroke-width="2" stroke-dasharray="5,2" stroke-opacity="0.317647" d="M390.47,-283.81C365.07,-239.18 316.81,-137.79 363.17,-78.69"/>
<polygon fill="none" stroke="#ee7ce4" stroke-width="2" stroke-opacity="0.317647" points="365.98,-80.8 370,-71 360.74,-76.16 365.98,-80.8"/>
</g>
<!-- s1&#45;&gt;cell -->
<g id="edge5" class="edge">
<title>s1:s&#45;&gt;cell:n</title>
<path fill="none" stroke="#ffc4b9" stroke-width="2" d="M404,-283C404,-183.57 194.97,-318.7 179.86,-236.22"/>
<polygon fill="#ffc4b9" stroke="#ffc4b9" stroke-width="2" points="183.33,-235.67 179,-226 176.35,-236.26 183.33,-235.67"/>
</g>
<!-- cell&#45;&gt;buffer -->
<g id="edge9" class="edge">
<title>cell:w&#45;&gt;buffer:nw</title>
<path fill="none" stroke="#ffc4b9" stroke-width="2" d="M144,-144.5C124.35,-144.5 73.07,-103.46 67.88,-80.98"/>
<polygon fill="#ffc4b9" stroke="#ffc4b9" stroke-width="2" points="71.34,-81.51 70,-71 64.5,-80.05 71.34,-81.51"/>
</g>
<!-- priorities -->
<g id="node7" class="node">
<title>priorities</title>
<polygon fill="none" stroke="orange" points="535,-76 535,-97 563,-97 563,-76 535,-76"/>
<text text-anchor="start" x="538" y="-82.8" font-family="sans-serif" font-size="14.00" fill="#ffc4b9">len</text>
<polygon fill="none" stroke="orange" points="565,-76 565,-97 611,-97 611,-76 565,-76"/>
<text text-anchor="start" x="568" y="-82.8" font-family="sans-serif" font-size="14.00" fill="#ffc4b9">count</text>
<polygon fill="none" stroke="orange" points="535,-53 535,-74 563,-74 563,-53 535,-53"/>
<text text-anchor="start" x="539.5" y="-59.8" font-family="sans-serif" font-size="14.00" fill="#ffc4b9">12</text>
<polygon fill="none" stroke="orange" points="565,-53 565,-74 611,-74 611,-53 565,-53"/>
<text text-anchor="start" x="583" y="-59.8" font-family="sans-serif" font-size="14.00" fill="#ffc4b9">2</text>
<polygon fill="none" stroke="orange" points="535,-30 535,-51 563,-51 563,-30 535,-30"/>
<text text-anchor="start" x="544" y="-36.8" font-family="sans-serif" font-size="14.00" fill="#ffc4b9">7</text>
<polygon fill="none" stroke="orange" points="565,-30 565,-51 611,-51 611,-30 565,-30"/>
<text text-anchor="start" x="583" y="-36.8" font-family="sans-serif" font-size="14.00" fill="#ffc4b9">1</text>
<polygon fill="none" stroke="orange" points="535,-7 535,-28 563,-28 563,-7 535,-7"/>
<text text-anchor="start" x="544" y="-13.8" font-family="sans-serif" font-size="14.00" fill="#ffc4b9">4</text>
<polygon fill="none" stroke="orange" points="565,-7 565,-28 611,-28 611,-7 565,-7"/>
<text text-anchor="start" x="583" y="-13.8" font-family="sans-serif" font-size="14.00" fill="#ffc4b9">1</text>
<polygon fill="none" stroke="orange" points="532,-4 532,-100 614,-100 614,-4 532,-4"/>
</g>
<!-- cell&#45;&gt;priorities -->
<g id="edge10" class="edge">
<title>cell:priorities&#45;&gt;priorities</title>
<path fill="none" stroke="#ffc4b9" stroke-width="2" d="M214,-214.5C328.69,-214.5 447.29,-145.09 515.39,-97.28"/>
<polygon fill="#ffc4b9" stroke="#ffc4b9" stroke-width="2" points="517.72,-99.92 523.84,-91.27 513.66,-94.21 517.72,-99.92"/>
</g>
</g>
</svg>
