<?xml version="1.0" encoding="UTF-8" standalone="no"?>
<!DOCTYPE svg PUBLIC "-//W3C//DTD SVG 1.1//EN"
 "http://www.w3.org/Graphics/SVG/1.1/DTD/svg11.dtd">
<!-- Generated by graphviz version 2.43.0 (0)
 -->
<!-- Title: structs Pages: 1 -->
<svg width="604pt" height="378pt"
 viewBox="0.00 0.00 604.00 378.00" xmlns="http://www.w3.org/2000/svg" xmlns:xlink="http://www.w3.org/1999/xlink">
<g id="graph0" class="graph" transform="scale(1 1) rotate(0) translate(18 360)">
<title>structs</title>
<polygon fill="#1f1a30" stroke="transparent" points="-18,18 -18,-360 586,-360 586,18 -18,18"/>
<g id="clust1" class="cluster">
<title>cluster_stack</title>
<polygon fill="#1f1a30" stroke="transparent" points="163,-233 163,-334 361,-334 361,-233 163,-233"/>
</g>
<g id="clust2" class="cluster">
<title>cluster_s2</title>
<polygon fill="#1f1a30" stroke="transparent" points="171,-241 171,-326 243,-326 243,-241 171,-241"/>
<text text-anchor="middle" x="205.5" y="-311.6" font-family="Courier,monospace" font-weight="bold" font-size="13.00" fill="#ffc4b9">nomicon</text>
</g>
<g id="clust3" class="cluster">
<title>cluster_s1</title>
<polygon fill="#1f1a30" stroke="transparent" points="281,-241 281,-326 353,-326 353,-241 281,-241"/>
<text text-anchor="middle" x="304.5" y="-311.6" font-family="Courier,monospace" font-weight="bold" font-size="13.00" fill="#ffc4b9">icon</text>
</g>
<g id="clust4" class="cluster">
<title>cluster_phantom_edges</title>
<polygon fill="#1f1a30" stroke="transparent" points="8,-14 8,-67 424,-67 424,-14 8,-14"/>
</g>
<!-- s2 -->
<g id="node1" class="node">
<title>s2</title>
<polygon fill="none" stroke="orange" stroke-width="2" points="179,-249.5 179,-295.5 235,-295.5 235,-249.5 179,-249.5"/>
<text text-anchor="middle" x="207" y="-280.3" font-family="sans-serif" font-size="14.00" fill="#ffc4b9">len: 7</text>
<polyline fill="none" stroke="orange" stroke-width="2" points="179,-272.5 235,-272.5 "/>
<text text-anchor="middle" x="207" y="-257.3" font-family="sans-serif" font-size="14.00" fill="#ffc4b9">ptr: *</text>
</g>
<!-- buffer -->
<g id="node3" class="node">
<title>buffer</title>
<polygon fill="none" stroke="orange" stroke-width="2" points="16,-22.5 16,-58.5 416,-58.5 416,-22.5 16,-22.5"/>
<text text-anchor="middle" x="28.5" y="-36.8" font-family="Courier,monospace" font-weight="bold" font-size="14.00" fill="#ffc4b9">_</text>
<polyline fill="none" stroke="orange" stroke-width="2" points="41,-22.5 41,-58.5 "/>
<text text-anchor="middle" x="53.5" y="-36.8" font-family="Courier,monospace" font-weight="bold" font-size="14.00" fill="#ffc4b9">_</text>
<polyline fill="none" stroke="orange" stroke-width="2" points="66,-22.5 66,-58.5 "/>
<text text-anchor="middle" x="78.5" y="-36.8" font-family="Courier,monospace" font-weight="bold" font-size="14.00" fill="#ffc4b9">_</text>
<polyline fill="none" stroke="orange" stroke-width="2" points="91,-22.5 91,-58.5 "/>
<text text-anchor="middle" x="103.5" y="-36.8" font-family="Courier,monospace" font-weight="bold" font-size="14.00" fill="#ffc4b9">_</text>
<polyline fill="none" stroke="orange" stroke-width="2" points="116,-22.5 116,-58.5 "/>
<text text-anchor="middle" x="128.5" y="-36.8" font-family="Courier,monospace" font-weight="bold" font-size="14.00" fill="#ffc4b9">_</text>
<polyline fill="none" stroke="orange" stroke-width="2" points="141,-22.5 141,-58.5 "/>
<text text-anchor="middle" x="153.5" y="-36.8" font-family="Courier,monospace" font-weight="bold" font-size="14.00" fill="#ffc4b9">_</text>
<polyline fill="none" stroke="orange" stroke-width="2" points="166,-22.5 166,-58.5 "/>
<text text-anchor="middle" x="178.5" y="-36.8" font-family="Courier,monospace" font-weight="bold" font-size="14.00" fill="#ffc4b9">_</text>
<polyline fill="none" stroke="orange" stroke-width="2" points="191,-22.5 191,-58.5 "/>
<text text-anchor="middle" x="203.5" y="-36.8" font-family="Courier,monospace" font-weight="bold" font-size="14.00" fill="#ffc4b9">_</text>
<polyline fill="none" stroke="orange" stroke-width="2" points="216,-22.5 216,-58.5 "/>
<text text-anchor="middle" x="228.5" y="-36.8" font-family="Courier,monospace" font-weight="bold" font-size="14.00" fill="#ffc4b9">_</text>
<polyline fill="none" stroke="orange" stroke-width="2" points="241,-22.5 241,-58.5 "/>
<text text-anchor="middle" x="253.5" y="-36.8" font-family="Courier,monospace" font-weight="bold" font-size="14.00" fill="#ffc4b9">n</text>
<polyline fill="none" stroke="orange" stroke-width="2" points="266,-22.5 266,-58.5 "/>
<text text-anchor="middle" x="278.5" y="-36.8" font-family="Courier,monospace" font-weight="bold" font-size="14.00" fill="#ffc4b9">o</text>
<polyline fill="none" stroke="orange" stroke-width="2" points="291,-22.5 291,-58.5 "/>
<text text-anchor="middle" x="303.5" y="-36.8" font-family="Courier,monospace" font-weight="bold" font-size="14.00" fill="#ffc4b9">m</text>
<polyline fill="none" stroke="orange" stroke-width="2" points="316,-22.5 316,-58.5 "/>
<text text-anchor="middle" x="328.5" y="-36.8" font-family="Courier,monospace" font-weight="bold" font-size="14.00" fill="#ffc4b9">i</text>
<polyline fill="none" stroke="orange" stroke-width="2" points="341,-22.5 341,-58.5 "/>
<text text-anchor="middle" x="353.5" y="-36.8" font-family="Courier,monospace" font-weight="bold" font-size="14.00" fill="#ffc4b9">c</text>
<polyline fill="none" stroke="orange" stroke-width="2" points="366,-22.5 366,-58.5 "/>
<text text-anchor="middle" x="378.5" y="-36.8" font-family="Courier,monospace" font-weight="bold" font-size="14.00" fill="#ffc4b9">o</text>
<polyline fill="none" stroke="orange" stroke-width="2" points="391,-22.5 391,-58.5 "/>
<text text-anchor="middle" x="403.5" y="-36.8" font-family="Courier,monospace" font-weight="bold" font-size="14.00" fill="#ffc4b9">n</text>
</g>
<!-- s2&#45;&gt;buffer -->
<g id="edge2" class="edge">
<title>s2&#45;&gt;buffer:nw</title>
<path fill="none" stroke="#ee7ce4" stroke-width="2" stroke-dasharray="5,2" stroke-opacity="0.317647" d="M204.56,-249.32C203.21,-235.93 201.68,-218.5 201,-203 199.19,-161.71 187.41,-149.04 201,-110 209.16,-86.55 218.02,-81.02 233.44,-66.76"/>
<polygon fill="none" stroke="#ee7ce4" stroke-width="2" stroke-opacity="0.317647" points="236.21,-68.95 241,-59.5 231.36,-63.9 236.21,-68.95"/>
</g>
<!-- cell -->
<g id="node4" class="node">
<title>cell</title>
<polygon fill="none" stroke="orange" stroke-width="2" points="228,-110.5 228,-202.5 296,-202.5 296,-110.5 228,-110.5"/>
<text text-anchor="middle" x="262" y="-187.3" font-family="sans-serif" font-size="14.00" fill="#ffc4b9">refs: *</text>
<polyline fill="none" stroke="orange" stroke-width="2" points="228,-179.5 296,-179.5 "/>
<text text-anchor="middle" x="262" y="-164.3" font-family="sans-serif" font-size="14.00" fill="#ffc4b9">len: 7</text>
<polyline fill="none" stroke="orange" stroke-width="2" points="228,-156.5 296,-156.5 "/>
<text text-anchor="middle" x="262" y="-141.3" font-family="sans-serif" font-size="14.00" fill="#ffc4b9">cap: 16</text>
<polyline fill="none" stroke="orange" stroke-width="2" points="228,-133.5 296,-133.5 "/>
<text text-anchor="middle" x="262" y="-118.3" font-family="sans-serif" font-size="14.00" fill="#ffc4b9">ptr: *</text>
</g>
<!-- s2&#45;&gt;cell -->
<g id="edge4" class="edge">
<title>s2:s&#45;&gt;cell:n</title>
<path fill="none" stroke="#ffc4b9" stroke-width="2" d="M207,-248.5C207,-220.74 249.11,-231.01 259.64,-212.76"/>
<polygon fill="#ffc4b9" stroke="#ffc4b9" stroke-width="2" points="263.05,-213.54 262,-203 256.25,-211.9 263.05,-213.54"/>
</g>
<!-- s1 -->
<g id="node2" class="node">
<title>s1</title>
<polygon fill="none" stroke="orange" stroke-width="2" points="289,-249.5 289,-295.5 345,-295.5 345,-249.5 289,-249.5"/>
<text text-anchor="middle" x="317" y="-280.3" font-family="sans-serif" font-size="14.00" fill="#ffc4b9">len: 4</text>
<polyline fill="none" stroke="orange" stroke-width="2" points="289,-272.5 345,-272.5 "/>
<text text-anchor="middle" x="317" y="-257.3" font-family="sans-serif" font-size="14.00" fill="#ffc4b9">ptr: *</text>
</g>
<!-- s1&#45;&gt;buffer -->
<g id="edge1" class="edge">
<title>s1&#45;&gt;buffer:nw</title>
<path fill="none" stroke="#ee7ce4" stroke-width="2" stroke-dasharray="5,2" stroke-opacity="0.317647" d="M319.44,-249.32C320.79,-235.93 322.32,-218.5 323,-203 324.81,-161.71 325.84,-151.24 323,-110 321.73,-91.63 307.33,-80.35 310.56,-68.17"/>
<polygon fill="none" stroke="#ee7ce4" stroke-width="2" stroke-opacity="0.317647" points="313.65,-69.83 316,-59.5 307.72,-66.11 313.65,-69.83"/>
</g>
<!-- s1&#45;&gt;cell -->
<g id="edge3" class="edge">
<title>s1:s&#45;&gt;cell:n</title>
<path fill="none" stroke="#ffc4b9" stroke-width="2" d="M317,-248.5C317,-220.74 274.89,-231.01 264.36,-212.76"/>
<polygon fill="#ffc4b9" stroke="#ffc4b9" stroke-width="2" points="267.75,-211.9 262,-203 260.95,-213.54 267.75,-211.9"/>
</g>
<!-- cell&#45;&gt;buffer -->
<g id="edge5" class="edge">
<title>cell:w&#45;&gt;buffer:nw</title>
<path fill="none" stroke="#ffc4b9" stroke-width="2" d="M227,-121.5C226.34,-121.5 67.03,-75.07 25.7,-62.57"/>
<polygon fill="#ffc4b9" stroke="#ffc4b9" stroke-width="2" points="26.59,-59.18 16,-59.5 24.48,-65.85 26.59,-59.18"/>
</g>
<!-- priorities -->
<g id="node5" class="node">
<title>priorities</title>
<polygon fill="none" stroke="orange" points="481,-52.5 481,-73.5 509,-73.5 509,-52.5 481,-52.5"/>
<text text-anchor="start" x="484" y="-59.3" font-family="sans-serif" font-size="14.00" fill="#ffc4b9">len</text>
<polygon fill="none" stroke="orange" points="511,-52.5 511,-73.5 557,-73.5 557,-52.5 511,-52.5"/>
<text text-anchor="start" x="514" y="-59.3" font-family="sans-serif" font-size="14.00" fill="#ffc4b9">count</text>
<polygon fill="none" stroke="orange" points="481,-29.5 481,-50.5 509,-50.5 509,-29.5 481,-29.5"/>
<text text-anchor="start" x="490" y="-36.3" font-family="sans-serif" font-size="14.00" fill="#ffc4b9">7</text>
<polygon fill="none" stroke="orange" points="511,-29.5 511,-50.5 557,-50.5 557,-29.5 511,-29.5"/>
<text text-anchor="start" x="529" y="-36.3" font-family="sans-serif" font-size="14.00" fill="#ffc4b9">1</text>
<polygon fill="none" stroke="orange" points="481,-6.5 481,-27.5 509,-27.5 509,-6.5 481,-6.5"/>
<text text-anchor="start" x="490" y="-13.3" font-family="sans-serif" font-size="14.00" fill="#ffc4b9">4</text>
<polygon fill="none" stroke="orange" points="511,-6.5 511,-27.5 557,-27.5 557,-6.5 511,-6.5"/>
<text text-anchor="start" x="529" y="-13.3" font-family="sans-serif" font-size="14.00" fill="#ffc4b9">1</text>
<polygon fill="none" stroke="orange" points="478,-4 478,-77 560,-77 560,-4 478,-4"/>
</g>
<!-- cell&#45;&gt;priorities -->
<g id="edge6" class="edge">
<title>cell:priorities&#45;&gt;priorities</title>
<path fill="none" stroke="#ffc4b9" stroke-width="2" d="M297,-191.5C371.53,-191.5 439.73,-132.74 480.33,-88.77"/>
<polygon fill="#ffc4b9" stroke="#ffc4b9" stroke-width="2" points="482.98,-91.06 487.1,-81.3 477.79,-86.37 482.98,-91.06"/>
</g>
</g>
</svg>
